<svg width="161" height="45" viewBox="0 0 161 45" fill="none" xmlns="http://www.w3.org/2000/svg">
<g clip-path="url(#clip0_22_859)">
<path d="M26.2585 24.9694C25.7972 25.2384 25.259 25.2873 24.8489 25.0672C24.3364 24.7738 24.0289 24.1137 24.0289 23.209V20.4462C24.0289 19.1259 23.4907 18.1723 22.5681 17.9278C21.0048 17.4877 19.8259 19.3215 19.3902 20.0061L16.6224 24.2359V19.0281C16.5968 17.83 16.1867 17.121 15.4179 16.9009C14.9053 16.7542 14.1365 16.8276 13.3933 17.9034L7.21693 27.3411C6.39684 25.8496 5.96116 24.187 5.96116 22.5C5.96116 16.8031 10.7536 12.1821 16.6224 12.1821C22.4912 12.1821 27.2836 16.8031 27.2836 22.5V22.5244V22.5489C27.3349 23.6491 26.9761 24.5293 26.2585 24.9694ZM29.6414 22.5V22.4755V22.4511C29.6157 15.5317 23.7726 9.88379 16.6224 9.88379C9.44656 9.88379 3.60339 15.5317 3.60339 22.5C3.60339 29.4438 9.44656 35.1162 16.6224 35.1162C19.9284 35.1162 23.055 33.9181 25.464 31.7421C25.9509 31.302 25.9766 30.5929 25.5153 30.1284C25.0796 29.6638 24.3364 29.6394 23.8495 30.055C23.8495 30.055 23.8495 30.055 23.8238 30.0795C21.8761 31.8399 19.2621 32.8423 16.5711 32.8423C13.4189 32.8423 10.5998 31.522 8.6521 29.4193L14.2134 20.9107V24.8472C14.2134 26.7298 14.9822 27.3411 15.6229 27.5122C16.2636 27.6834 17.2375 27.5611 18.2882 25.9719L21.3379 21.253C21.4404 21.1063 21.5173 20.9596 21.6198 20.8618V23.2579C21.6198 25.0183 22.363 26.4364 23.6444 27.121C24.7977 27.7567 26.2585 27.6834 27.463 26.9743C28.9494 26.0452 29.7439 24.4315 29.6414 22.5ZM47.7859 18.1968C48.0935 18.3679 48.3754 18.7836 48.3754 19.1503C48.3754 19.7371 47.8628 20.2261 47.2734 20.2261C47.1196 20.2261 46.9915 20.1772 46.8633 20.1528C46.1714 19.6638 45.3 19.3459 44.3774 19.3459C42.1991 19.3459 40.7126 21.033 40.7126 23.1357C40.7126 25.2384 42.2247 26.901 44.3774 26.901C45.4538 26.901 46.4277 26.4853 47.1452 25.8252C47.3246 25.7029 47.5553 25.6296 47.7859 25.6296C48.3754 25.6296 48.8367 26.0697 48.8367 26.632C48.8367 26.9988 48.606 27.3166 48.3241 27.4878C47.2734 28.3435 45.8638 28.9059 44.4031 28.9059C41.0714 28.9059 38.3549 26.2897 38.3549 23.0623C38.3549 19.8349 41.0714 17.2188 44.4031 17.2188C45.6332 17.1943 46.8121 17.5611 47.7859 18.1968ZM53.8854 20.6418C56.1663 20.6418 58.0627 22.4755 58.0627 24.7494C58.0627 26.9988 56.1406 28.9303 53.8854 28.9303C51.502 28.9303 49.5286 27.0232 49.5286 24.7494C49.5286 22.4755 51.502 20.6418 53.8854 20.6418ZM53.8598 26.901C54.8593 26.901 55.705 25.9963 55.705 24.7738C55.705 23.5513 54.8593 22.7689 53.8598 22.7689C52.7834 22.7689 51.8864 23.5269 51.8864 24.7738C51.8864 25.9719 52.7834 26.901 53.8598 26.901ZM59.4979 27.6589V21.8887C59.4979 21.253 60.0105 20.7396 60.6768 20.7396C61.3175 20.7396 61.8557 21.253 61.8557 21.8887V27.6589C61.8557 28.2946 61.3175 28.8081 60.6768 28.8081C60.0361 28.8081 59.4979 28.2702 59.4979 27.6589ZM59.3185 18.5635C59.3185 17.8056 59.9336 17.2188 60.6768 17.2188C61.4456 17.2188 62.0607 17.83 62.0607 18.5635C62.0607 19.297 61.4456 19.8838 60.6768 19.8838C59.908 19.8594 59.3185 19.2726 59.3185 18.5635ZM66.3662 24.5293V27.6589C66.3662 28.2946 65.828 28.8081 65.1873 28.8081C64.5466 28.8081 64.0084 28.2946 64.0084 27.6589V21.6198C64.0084 21.1308 64.4185 20.7396 64.931 20.7396C65.4436 20.7396 65.828 21.1552 65.828 21.6198C66.7762 20.764 67.622 20.6418 68.4164 20.6418C70.7742 20.6418 71.8249 22.3288 71.8249 24.2604V27.6589C71.8249 28.2946 71.2868 28.8081 70.646 28.8081C70.0053 28.8081 69.4672 28.2946 69.4672 27.6589V24.5293C69.4672 23.5513 69.339 22.72 67.8526 22.72C66.8019 22.72 66.3662 23.5513 66.3662 24.5293ZM79.4621 25.7274C79.1802 25.7274 79.0008 25.6051 78.847 25.434L76.1048 22.5978V27.6589C76.1048 28.2946 75.5666 28.8081 74.9259 28.8081C74.2852 28.8081 73.747 28.2946 73.747 27.6589V17.6344C73.8239 17.4633 74.0033 17.341 74.1827 17.341C74.3877 17.341 74.5671 17.5122 74.6953 17.6344L79.0776 22.3288C79.2058 22.4755 79.3596 22.5489 79.4621 22.5489C79.5389 22.5489 79.7183 22.4755 79.8465 22.3288L84.2289 17.6344C84.357 17.5122 84.5108 17.341 84.7414 17.341C84.9464 17.341 85.1258 17.4633 85.1771 17.6344V27.6589C85.1771 28.2946 84.6645 28.8081 83.9982 28.8081C83.3575 28.8081 82.8193 28.2946 82.8193 27.6589V22.5978L80.0771 25.434C79.8721 25.6051 79.6927 25.7274 79.4621 25.7274ZM90.7896 26.901C91.8403 26.901 92.7373 25.9963 92.7373 24.7738C92.7373 23.5513 91.8147 22.7445 90.7896 22.7445C89.7645 22.7445 88.9188 23.5758 88.9188 24.7738C88.9188 25.9474 89.7389 26.901 90.7896 26.901ZM93.3011 27.9279L93.2499 27.6589C92.7886 28.5147 91.3278 28.9059 90.4052 28.9059C88.2012 28.9059 86.561 26.9988 86.561 24.7249C86.561 22.4755 88.2268 20.6173 90.5333 20.6173C90.9177 20.6173 92.2504 20.7151 93.2755 21.8643L93.3268 21.5953C93.3268 21.1063 93.7112 20.7151 94.2237 20.7151C94.7363 20.7151 95.1464 21.1308 95.1464 21.5953V27.9034C95.1464 28.3924 94.7363 28.7836 94.2237 28.7836C93.6856 28.8081 93.3011 28.3924 93.3011 27.9279ZM101.63 22.72H101.374C99.8875 22.7934 99.6056 23.6002 99.6056 24.5293V27.6589C99.6056 28.2946 99.0674 28.8081 98.4267 28.8081C97.786 28.8081 97.2478 28.2946 97.2478 27.6589V21.6198C97.2478 21.1308 97.6579 20.7396 98.1704 20.7396C98.683 20.7396 99.0674 21.1552 99.0674 21.6198C99.9388 20.8374 100.656 20.6662 101.374 20.6418H101.605C102.168 20.6418 102.681 21.1063 102.681 21.6931C102.707 22.231 102.194 22.72 101.63 22.72ZM110.728 27.121C110.831 27.2922 110.908 27.4633 110.908 27.6589C110.908 28.2457 110.344 28.7836 109.729 28.7836C109.319 28.7836 108.96 28.4902 108.678 28.1479L105.961 25.1406V27.6345C105.961 28.2702 105.423 28.7836 104.782 28.7836C104.142 28.7836 103.604 28.2702 103.604 27.6345V18.4657C103.604 17.83 104.116 17.3166 104.782 17.3166C105.449 17.3166 105.961 17.83 105.961 18.4657V24.187L108.678 21.3264C108.96 21.033 109.293 20.7151 109.703 20.7151C110.292 20.7151 110.831 21.2286 110.831 21.8154C110.831 21.9865 110.779 22.1821 110.677 22.3288L108.524 24.5782L110.728 27.121ZM115.341 22.7445C114.7 22.7445 113.65 23.0623 113.65 24.0159H117.058C117.033 23.0623 115.956 22.7445 115.341 22.7445ZM118.417 25.4584H113.65C113.65 26.8032 115.008 27.0232 115.597 27.0232C116.033 27.0232 116.648 26.9499 117.135 26.7298C117.289 26.632 117.52 26.5587 117.75 26.5587C118.263 26.5587 118.698 26.9743 118.698 27.4878C118.698 27.8301 118.468 28.1235 118.186 28.2946C117.468 28.8081 116.52 28.9303 115.623 28.9303C113.24 28.9303 111.266 27.7078 111.266 24.8472C111.266 22.5978 112.471 20.6418 115.29 20.6418C117.571 20.6418 119.288 22.0599 119.339 24.5782C119.339 25.0428 118.929 25.4584 118.417 25.4584ZM124.977 28.9059H124.337C122.543 28.9059 121.492 28.1479 121.492 25.4829V22.72H120.877C120.313 22.72 119.826 22.231 119.826 21.6931C119.826 21.1063 120.339 20.6418 120.877 20.6418H121.492V18.5146C121.492 17.8789 122.004 17.3655 122.671 17.3655C123.311 17.3655 123.85 17.8789 123.85 18.5146V20.6418H124.823C125.387 20.6418 125.874 21.1063 125.874 21.6931C125.874 22.231 125.362 22.72 124.823 22.72H123.85V25.0428C123.85 26.5831 123.927 26.901 124.644 26.901H124.977C125.541 26.901 126.028 27.3411 126.028 27.9034C126.028 28.4413 125.541 28.9059 124.977 28.9059ZM136.382 18.1968C136.689 18.3679 136.971 18.7836 136.971 19.1503C136.971 19.7371 136.459 20.2261 135.869 20.2261C135.715 20.2261 135.587 20.1772 135.459 20.1528C134.767 19.6638 133.896 19.3459 132.973 19.3459C130.795 19.3459 129.308 21.033 129.308 23.1357C129.308 25.2384 130.82 26.901 132.973 26.901C134.05 26.901 135.023 26.4853 135.741 25.8252C135.92 25.7029 136.151 25.6296 136.382 25.6296C136.971 25.6296 137.432 26.0697 137.432 26.632C137.432 26.9988 137.202 27.3166 136.92 27.4878C135.869 28.3435 134.46 28.9059 132.999 28.9059C129.667 28.9059 126.951 26.2897 126.951 23.0623C126.951 19.8349 129.667 17.2188 132.999 17.2188C134.229 17.1943 135.433 17.5611 136.382 18.1968ZM142.353 26.901C143.404 26.901 144.301 25.9963 144.301 24.7738C144.301 23.5513 143.378 22.7445 142.353 22.7445C141.302 22.7445 140.482 23.5758 140.482 24.7738C140.482 25.9474 141.328 26.901 142.353 26.901ZM144.865 27.9279L144.813 27.6589C144.352 28.5147 142.891 28.9059 141.969 28.9059C139.765 28.9059 138.124 26.9988 138.124 24.7249C138.124 22.4755 139.79 20.6173 142.097 20.6173C142.481 20.6173 143.814 20.7151 144.839 21.8643L144.89 21.5953C144.89 21.1063 145.275 20.7151 145.787 20.7151C146.3 20.7151 146.71 21.1308 146.71 21.5953V27.9034C146.71 28.3924 146.3 28.7836 145.787 28.7836C145.249 28.8081 144.865 28.3924 144.865 27.9279ZM153.142 26.901C154.193 26.901 155.013 25.9474 155.013 24.7738C155.013 23.5513 154.167 22.7445 153.142 22.7445C152.092 22.7445 151.195 23.5513 151.195 24.7738C151.195 25.9963 152.092 26.901 153.142 26.901ZM151.195 28.2457V31.1064C151.195 31.7421 150.656 32.2555 150.016 32.2555C149.375 32.2555 148.837 31.7421 148.837 31.1064V21.6198C148.837 21.1308 149.247 20.7396 149.759 20.7396C150.272 20.7396 150.656 21.1552 150.656 21.7176C151.528 20.8618 152.604 20.6418 153.424 20.6418C155.705 20.6418 157.397 22.4755 157.397 24.7494C157.397 26.9988 155.782 28.9303 153.552 28.9303C152.86 28.9059 151.835 28.7103 151.195 28.2457Z" fill="white"/>
</g>
<defs>
<clipPath id="clip0_22_859">
<rect width="161" height="45" fill="white"/>
</clipPath>
</defs>
</svg>


