<svg width="165" height="31" viewBox="0 0 165 31" fill="none" xmlns="http://www.w3.org/2000/svg">
<path d="M48.0772 21.922L37.5051 3.74618C35.1869 -0.0399891 29.5425 -0.084402 27.3026 3.90162L16.2154 22.7992C14.1435 26.2633 16.7082 30.6158 20.8519 30.6158H43.0823C47.2596 30.6158 50.3954 26.1523 48.0772 21.922Z" fill="#3156AA"/>
<path d="M32.8347 23.332L32.1851 22.1995C31.5804 21.1558 30.2365 18.8907 30.2365 18.8907L21.2883 3.50181C18.9812 0.0820469 13.4936 -0.206635 11.1754 4.11248L0.771301 21.9552C-1.37895 25.7081 1.17447 30.5823 5.85575 30.6157H27.963H37.3928H43.0036C37.2696 30.6601 35.4329 27.7177 32.8347 23.332Z" fill="#1972E2"/>
<path d="M32.8348 23.332L32.1852 22.1995C31.5805 21.1558 30.2366 18.8907 30.2366 18.8907L24.4018 8.85352L16.1703 22.8435C14.0985 26.3076 16.6631 30.6601 20.8068 30.6601H27.9183H37.3481H42.9925C37.2249 30.6157 35.433 27.7177 32.8348 23.332Z" fill="url(#paint0_linear_22_918)"/>
<path d="M90.4209 28.9393V4.35693H111.028V5.91137C111.028 7.14382 110.031 8.132 108.788 8.132H95.5614V14.7384H108.788V18.5134H95.5614V25.1198H108.788C110.02 25.1198 111.028 26.108 111.028 27.3404V28.8949L90.4209 28.9393Z" fill="white"/>
<path d="M140.627 4.35693H135.778C134.871 4.35693 134.064 4.73444 133.493 5.44504L127.636 12.762L121.779 5.50056C121.208 4.78996 120.401 4.41245 119.494 4.41245H114.645L124.5 16.6814L114.645 28.9504H119.494C120.401 28.9504 121.208 28.5729 121.779 27.8623L127.636 20.6008L133.538 27.9178C134.109 28.5729 134.915 29.0059 135.823 29.0059H140.672L130.817 16.7369L140.627 4.35693Z" fill="white"/>
<path d="M74.2833 26.341L81.0365 14.6383V28.8836H86.1769V4.31237H82.9851C81.9884 4.31237 81.0365 4.83422 80.5549 5.73357L72.4691 20.3564L64.3832 5.72247C63.9017 4.82312 62.9497 4.30127 61.953 4.30127H58.7724V28.8836H63.9129V14.6383L70.666 26.341H74.2833Z" fill="white"/>
<path d="M154.055 29.2169C146.921 29.3057 141.109 23.7431 141.064 16.6704C141.064 12.7954 142.251 9.58659 144.491 7.37707C146.731 5.20086 149.967 4.02393 153.82 4.02393C158.344 4.02393 161.906 5.57836 164.482 8.59842L162.869 9.9641C161.872 10.8079 160.394 10.8635 159.296 10.064C157.863 8.97592 156.06 8.45407 154.01 8.45407C148.971 8.45407 145.969 11.4741 145.969 16.5705C145.969 21.7112 149.06 24.8756 154.01 24.8756C156.105 24.8756 157.863 24.3093 159.296 23.2768C160.349 22.4773 161.816 22.5217 162.869 23.3767L164.482 24.7424C161.906 27.7069 158.479 29.2169 154.055 29.2169Z" fill="white"/>
<defs>
<linearGradient id="paint0_linear_22_918" x1="13.7477" y1="16.5165" x2="37.7732" y2="26.0305" gradientUnits="userSpaceOnUse">
<stop stop-color="#264CA2" stop-opacity="0"/>
<stop offset="1" stop-color="#234588"/>
</linearGradient>
</defs>
</svg>




















