<svg width="155" height="36" viewBox="0 0 155 36" fill="none" xmlns="http://www.w3.org/2000/svg">
<g clip-path="url(#clip0_22_958)">
<path d="M79.763 24.743C79.7878 23.6686 80.6806 22.8226 81.7594 22.8473C82.8382 22.872 83.6876 23.7612 83.6628 24.8356C83.638 25.8854 82.77 26.7313 81.7098 26.7313C80.6372 26.7128 79.763 25.8236 79.763 24.743ZM103.763 9.26238V13.1958H97.8174C95.821 13.1958 94.4198 13.6528 93.6634 14.5667C92.9256 15.4373 92.5598 16.7403 92.5598 18.5001C92.5598 20.4638 93.155 21.9087 94.3764 22.8226C94.86 23.1684 95.4118 23.4154 95.9822 23.5574C96.7882 23.718 97.588 23.7859 98.4188 23.7612H103.769V27.6946H96.9742C95.5048 27.7379 94.0354 27.5588 92.6342 27.1204C91.5306 26.7313 90.5696 26.0459 89.8132 25.1567C88.2074 23.2795 87.3766 20.8775 87.4696 18.4075C87.4696 15.1162 88.3872 12.6648 90.2472 11.0655C91.0036 10.4047 91.9212 9.9231 92.9132 9.66993C94.2462 9.37353 95.5978 9.23768 96.9556 9.2562H103.763V9.26238ZM115.884 9.01538C119.214 9.01538 121.694 9.9972 123.256 11.967C124.769 13.8874 125.531 16.2895 125.438 18.7348C125.556 21.3221 124.546 23.8353 122.686 25.6198C121.012 27.1759 118.711 27.9725 115.797 27.9725C112.79 27.9725 110.422 27.0833 108.705 25.3173C107.124 23.718 106.342 21.4085 106.342 18.3396C106.274 15.9869 107.074 13.696 108.618 11.9114C110.304 9.9972 112.716 9.03391 115.884 9.01538ZM115.928 12.8562C112.945 12.8562 111.451 14.7519 111.451 18.5248C111.383 19.7351 111.637 20.9516 112.183 22.0445C112.964 23.3969 114.409 24.1687 115.971 24.0823C118.91 24.0823 120.379 22.2051 120.379 18.4322C120.385 14.7766 118.891 12.9241 115.928 12.8562ZM129.134 9.26238H147.386C148.651 9.21915 149.935 9.355 151.175 9.6267C151.999 9.85517 152.762 10.3121 153.357 10.9543C154.504 12.3499 155.105 14.1344 154.988 15.9622V27.6946H150.028V16.765C150.052 16.1475 150.003 15.53 149.91 14.9125C149.842 14.5481 149.656 14.227 149.383 13.9739C148.738 13.4243 147.889 13.1279 147.039 13.1958H144.398V27.6946H139.438V13.1958H134.087V27.6946H129.127L129.134 9.26238ZM51.4104 18.4816L44.2494 9.03391H49.941L54.2376 15.32L58.8752 9.03391H64.4986L57.102 18.4816L64.4986 28.1084H59.0364L54.2376 21.5691L49.5318 28.1084H43.9952L51.4104 18.4816ZM71.7526 12.4425H63.3702L66.2842 9.03391H83.6442V12.4425H76.4088V28.133H71.7712L71.7526 12.4425Z" fill="white"/>
<path d="M79.763 24.7429C79.7878 23.6685 80.6806 22.8225 81.7594 22.8472C82.8382 22.8719 83.6876 23.7611 83.6628 24.8355C83.638 25.8853 82.77 26.7313 81.7098 26.7313C80.6372 26.7127 79.763 25.8235 79.763 24.7429Z" fill="white"/>
<path d="M18.2092 35.9997C8.22099 36.0676 0.0679901 28.0587 -0.000209918 18.1355C-0.0684099 8.18769 7.96679 0.0737976 17.9302 -0.000301897C27.9184 -0.0682264 36.0714 7.90982 36.1396 17.8577V17.9935C36.1644 27.9043 28.1478 35.9503 18.2092 35.9997ZM18.2092 2.67963C9.71519 2.63023 2.77739 9.42268 2.73399 17.9071C2.69059 26.3668 9.50439 33.2765 18.0232 33.3198C26.5172 33.363 33.455 26.5767 33.4984 18.1108V17.9935C33.4984 9.55853 26.6784 2.72285 18.2092 2.67963ZM18.8478 15.5297L22.3198 11.2999C22.6856 10.8676 22.6174 10.2007 22.1834 9.8364C21.9974 9.70056 21.768 9.60793 21.5386 9.60793C21.241 9.60793 20.9434 9.74378 20.7574 9.97225L17.5458 13.881L14.3094 9.97225C14.1234 9.74378 13.8258 9.60793 13.5282 9.60793H10.8622C10.2856 9.60793 9.82679 10.0896 9.82679 10.6577C9.82679 10.8861 9.91979 11.1146 10.0562 11.2999L14.855 17.129L8.74799 24.5822C8.38219 25.0144 8.40079 25.6566 8.84099 26.021C9.27499 26.3853 9.91979 26.3668 10.2856 25.9283L10.3104 25.9036L16.188 18.7469L18.8478 15.5297ZM26.8892 9.60793C26.5916 9.60793 26.294 9.74378 26.108 9.97225L20.2552 17.129L17.5892 20.3771L14.1234 24.6069C13.7576 25.0391 13.801 25.6813 14.2412 26.0457C14.6752 26.41 15.32 26.3668 15.6858 25.9283L18.8974 22.0196L22.109 25.9283C22.295 26.1568 22.5926 26.2927 22.8902 26.2927H25.5562C26.1328 26.2927 26.5916 25.8357 26.5916 25.2614C26.5916 25.0083 26.4986 24.7798 26.3374 24.6007L21.5634 18.7716L27.6704 11.3184C28.0362 10.8614 27.9432 10.2193 27.5092 9.85493C27.348 9.70056 27.1186 9.63263 26.8892 9.60793Z" fill="white"/>
</g>
<defs>
<clipPath id="clip0_22_958">
<rect width="155" height="36" fill="white"/>
</clipPath>
</defs>
</svg>















