<svg width="140" height="32" viewBox="0 0 140 32" fill="none" xmlns="http://www.w3.org/2000/svg">
<g clip-path="url(#clip0_22_888)">
<path d="M109.401 15.9853C109.401 15.1692 109.401 14.4015 109.374 13.6925C109.356 13.0236 109.29 12.357 109.175 11.6976C109.068 11.0956 108.879 10.5109 108.614 9.95965C108.333 9.39132 107.958 8.87421 107.505 8.43011C106.862 7.77415 106.097 7.24915 105.253 6.88442C104.34 6.51593 103.361 6.33326 102.376 6.34717C101.387 6.33445 100.405 6.51704 99.4872 6.88442C98.638 7.24417 97.8682 7.76689 97.2218 8.42277C96.7694 8.8666 96.3961 9.38382 96.1178 9.95231C95.8544 10.5037 95.6684 11.0885 95.5651 11.6903C95.4533 12.3498 95.3892 13.0165 95.3735 13.6852C95.3558 14.3941 95.347 15.1619 95.3514 15.978C95.3558 16.7941 95.3514 17.556 95.3735 18.2694C95.3892 18.938 95.4533 19.6047 95.5651 20.2642C95.6684 20.8661 95.8544 21.4509 96.1178 22.0022C96.3972 22.5701 96.7703 23.0871 97.2218 23.5318C97.8671 24.1882 98.6372 24.7101 99.4872 25.0672C100.404 25.437 101.387 25.6206 102.376 25.6074C103.362 25.6218 104.34 25.4381 105.253 25.0672C106.098 24.7073 106.863 24.1856 107.505 23.5318C107.957 23.0868 108.332 22.5699 108.614 22.0022C108.879 21.451 109.068 20.8663 109.175 20.2642C109.288 19.6068 109.354 18.9421 109.371 18.2752C109.393 17.5619 109.404 16.7985 109.398 15.9839L109.401 15.9853ZM105.686 15.9853C105.686 16.8896 105.673 17.6426 105.642 18.2415C105.625 18.7334 105.576 19.2237 105.495 19.7094C105.44 20.0329 105.34 20.3475 105.2 20.6444C105.086 20.8837 104.937 21.1049 104.758 21.3006C104.481 21.616 104.138 21.8666 103.753 22.0345C103.319 22.2193 102.852 22.3132 102.38 22.3105C101.907 22.3126 101.437 22.2187 101.001 22.0345C100.606 21.8698 100.254 21.619 99.9691 21.3006C99.7888 21.1058 99.6396 20.8844 99.527 20.6444C99.3905 20.3472 99.2963 20.0325 99.2469 19.7094C99.1682 19.2235 99.119 18.7333 99.0995 18.2415C99.073 17.6426 99.0597 16.8905 99.0597 15.9853C99.0597 15.0811 99.073 14.3266 99.0995 13.7277C99.1191 13.2359 99.1683 12.7457 99.2469 12.2598C99.2963 11.9367 99.3905 11.622 99.527 11.3248C99.64 11.085 99.7891 10.8637 99.9691 10.6686C100.254 10.3507 100.606 10.1 101.001 9.9347C101.437 9.74845 101.906 9.65448 102.38 9.65873C102.852 9.65386 103.32 9.74788 103.753 9.9347C104.138 10.1031 104.481 10.3536 104.758 10.6686C104.937 10.8646 105.086 11.0857 105.2 11.3248C105.34 11.6217 105.44 11.9363 105.495 12.2598C105.575 12.7455 105.625 13.2358 105.642 13.7277C105.675 14.3252 105.686 15.0797 105.686 15.9853Z" fill="white"/>
<path d="M138.997 6.83759C138.995 6.65909 138.85 6.51478 138.671 6.51318H135.607C135.427 6.51399 135.282 6.65876 135.281 6.83759V18.111L127.808 6.60419C127.758 6.52639 127.714 6.51318 127.603 6.51318H124.762C124.583 6.51555 124.438 6.65942 124.436 6.83759V25.1304C124.438 25.3084 124.583 25.4518 124.762 25.4534H127.824C128.003 25.4526 128.148 25.3084 128.149 25.1304V13.8277L135.623 25.3609C135.675 25.4387 135.716 25.4519 135.828 25.4519H138.668C138.847 25.4511 138.992 25.3072 138.994 25.129L138.997 6.83759Z" fill="white"/>
<path d="M118.456 6.83759C118.456 6.65876 118.31 6.51399 118.131 6.51318H115.069C114.89 6.51399 114.744 6.65876 114.744 6.83759V25.129C114.744 25.3078 114.89 25.4526 115.069 25.4534H118.131C118.31 25.4526 118.456 25.3078 118.456 25.129V6.83759Z" fill="white"/>
<path d="M81.8091 15.9855C81.8091 15.0754 81.8195 14.3179 81.846 13.7146C81.864 13.2227 81.9133 12.7325 81.9934 12.2468C82.2764 10.6174 83.5292 9.65593 85.1284 9.65593C86.1719 9.66473 87.1182 10.0493 87.7225 10.9242C87.9961 11.3326 88.1957 11.7857 88.312 12.2629C88.321 12.3132 88.3671 12.3482 88.4181 12.3436H92.0218C92.0734 12.3436 92.0926 12.3084 92.0837 12.2585C91.6902 10.0376 90.5008 8.04271 88.399 7.05482C87.366 6.57851 86.2385 6.34019 85.1004 6.35758C83.0713 6.35758 81.3621 7.04944 79.9727 8.43317C79.1794 9.20312 78.638 10.1936 78.4192 11.275C78.2069 12.3397 78.0998 13.9094 78.0978 15.984C78.0959 18.0586 78.203 19.6278 78.4192 20.6915C78.6361 21.7743 79.176 22.7668 79.9682 23.5392C81.3567 24.922 83.0659 25.6134 85.096 25.6134C86.2339 25.6305 87.3613 25.3927 88.3946 24.9176C90.4963 23.9297 91.6858 21.9348 92.0793 19.7139C92.0882 19.6625 92.069 19.6288 92.0174 19.6288H88.4122C88.361 19.6234 88.3144 19.6588 88.3061 19.7095C88.1895 20.1861 87.99 20.6387 87.7166 21.0468C87.1123 21.9275 86.166 22.3077 85.1225 22.315C83.5233 22.315 82.2705 21.355 81.9875 19.7257C81.9074 19.2399 81.8582 18.7497 81.8401 18.2578C81.8195 17.6515 81.8091 16.8926 81.8091 15.9855Z" fill="white"/>
<path d="M43.747 6.83759C43.7462 6.65876 43.6008 6.51399 43.4213 6.51318H40.36C40.1804 6.51399 40.035 6.65876 40.0342 6.83759V25.1304C40.0358 25.3087 40.181 25.4526 40.36 25.4535H43.4213C43.6003 25.4526 43.7454 25.3087 43.747 25.1304V19.7609L46.204 16.8354L51.2507 25.3565C51.2895 25.4193 51.3594 25.4564 51.4334 25.4535H55.1536C55.3245 25.4535 55.3555 25.3477 55.27 25.2024L48.6625 14.0464L54.7247 6.80383C54.847 6.65704 54.7954 6.51759 54.6038 6.51759H50.5373C50.4878 6.51469 50.4402 6.53675 50.4105 6.5763L43.747 14.5352V6.83759Z" fill="white"/>
<path d="M66.0501 22.315C64.3272 22.315 62.7648 20.7268 62.7648 18.8302V6.83759C62.764 6.65876 62.6186 6.51399 62.4391 6.51318H59.3778C59.1982 6.51399 59.0528 6.65876 59.052 6.83759V18.7833C59.052 22.9594 62.1885 25.6134 66.0501 25.6134C69.9118 25.6134 73.0483 22.9594 73.0483 18.7833V6.83759C73.0467 6.65909 72.9017 6.51478 72.7225 6.51318H69.6597C69.4808 6.51479 69.3363 6.65933 69.3355 6.83759V18.8302C69.3355 20.7253 67.7717 22.315 66.0501 22.315Z" fill="white"/>
<path fill-rule="evenodd" clip-rule="evenodd" d="M9.26202 15.9854L18.7658 25.4518L24.7646 19.4775C25.8372 18.5156 27.4783 18.5584 28.4989 19.5749C29.5196 20.5914 29.5626 22.2257 28.5967 23.294L20.6804 31.1795C19.617 32.221 17.9116 32.221 16.8482 31.1795L5.42692 19.8019V26.5645C5.42692 28.0569 4.21206 29.2668 2.71346 29.2668C1.21486 29.2668 0 28.0569 0 26.5645V5.39749C0 3.905 1.21486 2.6951 2.71346 2.6951C4.21206 2.6951 5.42692 3.905 5.42692 5.39749V12.1601L16.8467 0.785375C17.9098 -0.256909 19.6159 -0.256909 20.6789 0.785375L28.6011 8.66941C29.567 9.7377 29.524 11.3721 28.5034 12.3886C27.4827 13.405 25.8417 13.4478 24.769 12.4859L18.7702 6.51161L9.26202 15.9854ZM18.7702 13.2801C17.6714 13.2795 16.6804 13.9382 16.2595 14.9491C15.8386 15.9599 16.0706 17.1238 16.8474 17.8978C17.6242 18.6718 18.7927 18.9036 19.8079 18.4849C20.8231 18.0663 21.4851 17.0797 21.4851 15.9854C21.4855 15.2679 21.1997 14.5796 20.6905 14.072C20.1814 13.5644 19.4906 13.279 18.7702 13.2786V13.2801Z" fill="white"/>
</g>
<defs>
<clipPath id="clip0_22_888">
<rect width="140" height="32" fill="white"/>
</clipPath>
</defs>
</svg>

















