<svg width="137" height="48" viewBox="0 0 137 48" fill="none" xmlns="http://www.w3.org/2000/svg">
<path d="M58.0994 20.0918H55.9716L52.2261 33.288H56.3761L59.5414 22.1465C59.7172 21.6682 59.6469 21.1191 59.3479 20.694C59.0666 20.3043 58.5918 20.0741 58.0994 20.0918Z" fill="white"/>
<path d="M61.0008 17.1338C60.6316 18.3205 59.5589 19.153 58.328 19.2239C57.4839 19.2593 56.7805 18.6217 56.7453 17.7714C56.7277 17.5589 56.7629 17.3286 56.8508 17.1338C57.2201 15.947 58.2928 15.1145 59.5237 15.0436C60.0337 15.0082 60.526 15.2562 60.8426 15.6813C60.9832 15.8939 61.0888 16.1418 61.1063 16.3898C61.1239 16.6378 61.0888 16.8858 61.0008 17.1338Z" fill="white"/>
<path d="M77.9702 19.3833C77.1437 19.3833 76.3348 19.5427 75.5787 19.8439C75.2094 20.0033 74.8753 20.2158 74.5412 20.4461L75.4907 17.0806C75.649 16.6024 75.5962 16.0533 75.2973 15.6459C75.1566 15.451 74.9632 15.2916 74.7522 15.1853C74.5412 15.0791 74.295 15.0259 74.0488 15.0436H72.009L66.8391 33.288H70.8835L72.8706 26.2737C73.0816 25.3526 73.5388 24.5201 74.1895 23.847C74.6818 23.3333 75.3676 23.0322 76.071 23.0499C76.6337 22.9968 77.1789 23.3156 77.4075 23.847C77.6537 24.6441 77.6185 25.4943 77.3371 26.2737L75.3676 33.2703H79.4649L81.4168 26.4154C82.0147 24.7681 81.9971 22.9613 81.364 21.3495C80.731 20.0564 79.3945 19.2948 77.9702 19.3833Z" fill="white"/>
<path d="M114.845 19.3478C112.929 19.3124 111.047 19.8615 109.447 20.9242C108.744 19.8615 107.548 19.2769 106.282 19.3655C105.455 19.3655 104.646 19.5249 103.89 19.826C103.451 20.0209 103.028 20.2866 102.642 20.5877C102.536 19.8437 101.868 19.3124 101.129 19.3655H99.1071L95.1681 33.2702H99.2126L101.217 26.2381C101.428 25.3171 101.885 24.4846 102.536 23.8115C102.782 23.5635 103.064 23.3509 103.398 23.2092C103.714 23.0675 104.066 22.9967 104.418 23.0144C104.699 22.9789 104.98 23.0498 105.209 23.1915C105.438 23.3332 105.631 23.5635 105.737 23.8115C105.983 24.6085 105.948 25.4588 105.666 26.2381L103.679 33.2702H107.776L109.781 26.2381C109.992 25.3348 110.449 24.4846 111.1 23.8115C111.592 23.2978 112.278 22.9967 112.981 23.0144C113.562 22.9612 114.089 23.2801 114.318 23.8115C114.564 24.6085 114.529 25.4588 114.248 26.2381L112.243 33.2702H116.34L118.292 26.3798C118.89 24.7325 118.872 22.9258 118.239 21.3139C117.624 20.0209 116.27 19.2415 114.845 19.3478Z" fill="white"/>
<path d="M82.5776 27.2833L84.8285 19.3479H88.9257L86.6749 27.2833C86.0066 29.6214 88.1871 29.6214 88.1871 29.6214C89.5763 29.6037 90.7721 28.6472 91.1238 27.2833L93.3746 19.3479H97.4191L95.1683 27.2833C94.1659 30.8968 90.86 33.3589 87.1496 33.2703C87.1496 33.2703 80.7664 33.6954 82.5776 27.2833Z" fill="white"/>
<path d="M132.219 26.3978C132.817 24.7505 132.8 22.9437 132.166 21.3319C131.533 20.0388 130.197 19.2772 128.79 19.3834C127.964 19.3657 127.155 19.5251 126.399 19.844C126.029 20.0034 125.695 20.1982 125.361 20.4462L126.311 17.0985C126.469 16.6202 126.416 16.0888 126.117 15.6637C125.977 15.4689 125.783 15.3094 125.555 15.2032C125.344 15.0969 125.097 15.0437 124.851 15.0615H122.829L119.4 27.1771C117.518 33.8018 124.165 33.3058 124.165 33.3058C124.165 33.3058 130.232 33.4121 132.219 26.3978ZM128.157 26.2561C127.929 27.2126 127.471 28.0982 126.803 28.8245C126.557 29.0902 126.276 29.285 125.942 29.4267C125.625 29.5684 125.273 29.6393 124.922 29.6215C124.341 29.6924 123.779 29.3558 123.55 28.8067C123.321 27.9565 123.392 27.0532 123.708 26.2384C123.919 25.3173 124.376 24.4848 125.027 23.8117C125.519 23.298 126.205 22.9969 126.909 23.0146C127.471 22.9615 128.016 23.2803 128.245 23.8117C128.474 24.6265 128.456 25.4767 128.157 26.2561Z" fill="white"/>
<path d="M67.0503 17.0811C67.1382 16.8508 67.1558 16.5851 67.1207 16.3371C67.0855 16.0891 66.9976 15.8411 66.8569 15.6286C66.5755 15.2389 66.1183 15.0086 65.6435 15.0263H63.5334L59.1724 30.4366C58.5745 32.5622 59.612 33.0936 60.5967 33.1822C61.3001 33.2353 62.1266 33.2707 62.9355 33.2707C63.463 33.2707 63.973 33.253 64.395 33.2353L64.8171 33.2176L65.7491 29.923H63.9202C63.4279 29.923 63.4806 29.7458 63.5158 29.5687L65.3974 22.9086H65.9073C66.4876 22.8909 67.0327 22.6961 67.4899 22.3418C67.9823 21.9875 68.334 21.4562 68.5099 20.8716L68.8264 19.7734H66.2942L67.0503 17.0811Z" fill="white"/>
<path d="M52.7363 26.3978C53.3342 24.7505 53.3166 22.9437 52.6835 21.3319C52.0505 20.0565 50.714 19.2772 49.3073 19.3834C48.4808 19.3657 47.6719 19.5251 46.9157 19.844C46.5465 20.0034 46.2123 20.1982 45.8782 20.4462L46.8278 17.0985C46.9861 16.6202 46.9333 16.0888 46.6344 15.6637C46.4937 15.4689 46.3003 15.3094 46.0893 15.2032C45.8782 15.0969 45.632 15.0437 45.3859 15.0615H43.346L39.917 27.1771C38.0354 33.8018 44.6825 33.3058 44.6825 33.3058C44.6825 33.3058 50.7316 33.4121 52.7363 26.3978ZM48.6742 26.2561C48.4456 27.2126 47.9884 28.0982 47.3202 28.8245C46.8278 29.3381 46.142 29.6393 45.4386 29.6215C44.8583 29.6924 44.2956 29.3558 44.0494 28.8067C43.8208 27.9565 43.8912 27.0532 44.2077 26.2384C44.4187 25.3173 44.8759 24.4848 45.5265 23.8117C46.0189 23.298 46.7047 22.9969 47.4081 23.0146C47.9708 22.9615 48.5159 23.2803 48.7445 23.8117C48.9907 24.6265 48.9731 25.4767 48.6742 26.2561Z" fill="white"/>
<path d="M3.93833 20.446C3.30528 21.9162 3.99108 23.6343 5.45061 24.2543C5.85506 24.4314 6.29468 24.5023 6.75188 24.4846H7.7718L10.6733 14.2642H5.71439L3.93833 20.446Z" fill="#D62817"/>
<path d="M31.3358 18.2144C29.9993 15.522 27.6606 14.2289 24.3546 14.2289H18.2L15.3161 24.5025H19.6947C20.3981 24.3962 21.0839 24.7682 21.3652 25.4235C21.6817 26.4155 21.6466 27.496 21.2773 28.4879C20.9959 29.6924 20.4156 30.8083 19.5892 31.7294C18.9737 32.3847 18.1296 32.7567 17.2328 32.739C16.4943 32.8276 15.7909 32.4025 15.5095 31.7117C15.2282 30.6489 15.2985 29.5152 15.7029 28.4879L21.0663 9.42871C21.418 8.41907 21.2773 7.32086 20.6794 6.43521C20.0815 5.6027 19.0968 5.14217 18.0769 5.1953H12.1157L5.0466 30.2946C1.17796 44.0222 14.8765 43.0125 14.8765 43.0125C14.8765 43.0125 27.344 43.2959 31.4589 28.7359C32.6546 24.4493 32.6194 20.9067 31.3358 18.2144Z" fill="#EC7000"/>
<path d="M31.4588 28.6826C32.6722 24.4315 32.637 20.9066 31.3357 18.232C29.9993 15.5573 27.6605 14.282 24.3546 14.282H19.7122L16.8283 24.5024H19.677C20.3804 24.3961 21.0662 24.7681 21.3476 25.4057C21.6641 26.3977 21.629 27.4604 21.2597 28.4347" fill="url(#paint0_linear_22_905)"/>
<defs>
<linearGradient id="paint0_linear_22_905" x1="26.0971" y1="24.5985" x2="22.6302" y2="19.0503" gradientUnits="userSpaceOnUse">
<stop stop-color="#D62616" stop-opacity="0"/>
<stop offset="1" stop-color="#D62616"/>
</linearGradient>
</defs>
</svg>

















