<svg width="196" height="36" viewBox="0 0 196 36" fill="none" xmlns="http://www.w3.org/2000/svg">
<g clip-path="url(#clip0_22_929)">
<path d="M16.3007 0L0 9.00001V27L16.3007 36L32.6013 27V9.00001L16.3007 0ZM16.3007 0L0 9.00001V27L16.3007 36L32.6013 27V9.00001L16.3007 0Z" fill="#002E73"/>
<path d="M22.736 28.9688H20.4167L17.64 26.5313V25.2813L20.5147 22.6562V18.5L24.2713 16.1563L28.5507 19.25L22.736 28.9688ZM13.132 22.4063L13.5567 18.5L12.152 15H20.4493L19.0773 18.5L19.4693 22.4063H16.268H13.132ZM15.0267 26.5313L12.25 29H9.898L4.05067 19.25L8.36267 16.1875L12.152 18.5V22.6562L15.0267 25.2813V26.5313ZM9.86533 7.78126H22.7033L24.2387 14.0313H8.36267L9.86533 7.78126ZM16.3007 0L0 9.00001V27L16.3007 36L32.6013 27V9.00001L16.3007 0Z" fill="white"/>
<path d="M50.8947 26.3438C46.5827 26.3438 43.414 23.125 43.414 19.1563C43.414 15.1875 46.6153 11.875 50.9273 11.875C53.6713 11.875 55.37 12.8438 56.7093 14.25L54.6513 16.375C53.6387 15.3438 52.5607 14.6563 50.8947 14.6563C48.4773 14.6563 46.7133 16.6563 46.7133 19.0938C46.7133 21.5938 48.51 23.5938 51.058 23.5938C52.626 23.5938 53.7693 22.875 54.8147 21.875L56.8073 23.7813C55.37 25.25 53.704 26.3438 50.8947 26.3438Z" fill="white"/>
<path d="M63.112 26.3437H59.78V11.9062H63.112V15.2812C64.0267 13.2187 65.6927 11.7812 68.2407 11.9062V15.2812H68.0447C65.1374 15.2812 63.112 17.0937 63.112 20.7812V26.3437Z" fill="white"/>
<path d="M85.652 11.8438L78.302 30.2187H74.9373L76.538 26.3437L70.2333 11.8438H73.794L78.0733 22.5625L82.1893 11.8438H85.652Z" fill="white"/>
<path d="M95.452 14.625C93.198 14.625 91.238 16.375 91.238 19.0937C91.238 21.8125 93.2306 23.5625 95.452 23.5625C97.7386 23.5625 99.6006 21.8437 99.6006 19.0937C99.6006 16.3437 97.706 14.625 95.452 14.625ZM96.2033 26.3125C93.8187 26.3125 92.316 25.1562 91.3033 23.875V30.2187H87.9713V11.8438H91.3033V14.4375C92.3813 13 93.884 11.8438 96.2033 11.8438C99.6333 11.8438 102.965 14.4375 102.965 19.0625C102.965 23.6875 99.666 26.3125 96.2033 26.3125Z" fill="white"/>
<path d="M110.25 14.875V21.6875C110.25 22.9063 110.903 23.4063 112.047 23.4063H113.353V26.25H111.067C108.649 26.25 106.918 25.2187 106.918 22.1875V14.875H105.089V12.1563H106.918V8.34375H110.25V12.1563H113.353V14.875H110.25Z" fill="white"/>
<path d="M123.839 14.625C121.161 14.625 119.462 16.625 119.462 19.0625C119.462 21.5312 121.291 23.5625 123.872 23.5625C126.551 23.5625 128.249 21.5625 128.249 19.125C128.315 16.6563 126.453 14.625 123.839 14.625ZM123.839 26.3438C119.429 26.3438 116.163 23.125 116.163 19.1563C116.163 15.1563 119.462 11.875 123.905 11.875C128.347 11.875 131.614 15.0938 131.614 19.0938C131.614 23.0313 128.347 26.3438 123.839 26.3438Z" fill="white"/>
<path d="M163.399 14.625C160.72 14.625 159.021 16.625 159.021 19.0625C159.021 21.5312 160.851 23.5625 163.431 23.5625C166.11 23.5625 167.809 21.5625 167.809 19.125C167.841 16.6563 166.012 14.625 163.399 14.625ZM163.399 26.3438C158.989 26.3438 155.722 23.125 155.722 19.1563C155.722 15.1563 159.021 11.875 163.464 11.875C167.907 11.875 171.173 15.0938 171.173 19.0938C171.173 23.0313 167.874 26.3438 163.399 26.3438Z" fill="white"/>
<path d="M190.904 11.8438C194.073 11.8438 196 13.75 196 17.1562V26.3125H192.668V18.125C192.668 15.9062 191.59 14.75 189.728 14.75C187.931 14.75 186.625 15.9687 186.625 18.1875V26.3437H183.293V18.125C183.293 15.9687 182.182 14.75 180.353 14.75C178.523 14.75 177.249 16.0625 177.249 18.2187V26.3437H173.917V11.875H177.249V14.25C178.197 13.0312 179.438 11.875 181.659 11.875C183.75 11.875 185.187 12.8437 185.971 14.3125C187.18 12.8125 188.715 11.8438 190.904 11.8438Z" fill="white"/>
<path d="M134.521 23.25L135.959 22.4688H136.155L137.625 23.25L137.723 23.4062V25.0312L137.625 25.1875L136.155 25.9687H135.959L134.521 25.1875L134.423 25.0312V23.4062L134.521 23.25Z" fill="white"/>
<path d="M147.817 26.3125C143.505 26.2188 140.401 22.9375 140.467 18.9688C140.532 15 143.799 11.75 148.143 11.8438C150.887 11.9063 152.586 12.9063 153.893 14.3438L151.802 16.4375C150.822 15.4063 149.744 14.6563 148.078 14.625C145.661 14.5938 143.864 16.5313 143.831 19C143.766 21.5 145.53 23.5313 148.078 23.5625C149.646 23.5938 150.822 22.9063 151.867 21.9063L153.827 23.8438C152.357 25.3125 150.659 26.375 147.817 26.3125Z" fill="white"/>
</g>
<defs>
<clipPath id="clip0_22_929">
<rect width="196" height="36" fill="white"/>
</clipPath>
</defs>
</svg>

















