<svg width="164" height="31" viewBox="0 0 164 31" fill="none" xmlns="http://www.w3.org/2000/svg">
<g clip-path="url(#clip0_22_944)">
<path d="M44.3784 27.0415V3.81445H50.3021V22.3948H60.7259V27.0415H44.3784Z" fill="white"/>
<path d="M164 27.0415L152.448 15.5001L164 3.95864H155.544L148.223 11.2794V3.81445H142.3V27.0415H148.223V19.7208L155.544 27.0415H164Z" fill="white"/>
<path d="M96.5107 22.539L95.1003 27.0415H88.9011L96.9371 3.81445H104.822L112.858 27.0415H106.659L105.249 22.539L103.838 18.1741L100.88 8.46118L97.7768 18.1741L96.5107 22.539Z" fill="white"/>
<path d="M122.436 11.843V27.0415H116.801V3.81445H124.128L132.86 19.7208V3.81445H138.501V27.0415H131.174L122.436 11.843Z" fill="white"/>
<path d="M84.5387 18.0365C84.2566 17.3352 83.8368 16.7716 83.4104 16.208C82.9906 15.7885 82.4264 15.3625 81.7179 15.0807C81.1538 14.7989 80.4519 14.6613 79.8877 14.5171C80.4519 14.3794 81.016 14.2352 81.5802 13.9534C82.1443 13.6716 82.5642 13.3898 82.9906 12.9703C83.4104 12.5509 83.6925 12.1249 83.8368 11.4236C84.1189 10.86 84.1189 10.1587 84.1189 9.45089C84.1189 8.74962 83.9811 8.0418 83.8368 7.34053C83.5547 6.63926 83.2726 6.07563 82.5707 5.51199C82.0066 4.94836 81.3047 4.52891 80.3141 4.24709C79.3301 3.96527 78.2018 3.82764 76.7914 3.82764H70.4479H67.2072H64.5307V27.0547H67.2072H70.4479H77.6311C80.0255 27.0547 81.7179 26.4911 82.984 25.3638C84.2501 24.2365 84.8143 22.6898 84.8143 20.7171C84.9586 19.7209 84.8208 18.8754 84.5387 18.0365ZM70.5856 7.6158H76.7848C77.349 7.6158 77.7688 7.75343 78.1952 7.89761C78.6151 8.03525 78.8971 8.17943 79.1792 8.46125C79.4613 8.74307 79.599 9.02489 79.7434 9.30671C79.8811 9.58852 79.8811 9.87034 79.8811 10.2898C79.8811 10.9911 79.5991 11.6989 79.1792 12.1183C78.7594 12.682 77.9131 12.8196 76.7848 12.8196H70.5856V7.6158ZM79.8877 22.113C79.4679 22.6767 78.6216 22.8143 77.4933 22.8143H70.5856V17.604H77.4867C78.0509 17.604 78.4707 17.7416 78.8971 17.8858C79.317 18.0234 79.599 18.1676 79.8811 18.4494C80.1632 18.7312 80.301 19.013 80.4453 19.2949C80.5831 19.5767 80.5831 19.8585 80.5831 20.278C80.5896 20.9923 80.4519 21.6936 79.8877 22.113Z" fill="white"/>
<path d="M15.5013 30.987C24.0624 30.987 31.0026 24.0532 31.0026 15.5001C31.0026 6.9469 24.0624 0.0131836 15.5013 0.0131836C6.94016 0.0131836 0 6.9469 0 15.5001C0 24.0532 6.94016 30.987 15.5013 30.987Z" fill="white"/>
<path d="M19.6013 17.5319C20.7932 17.5319 21.7595 16.5548 21.7595 15.3494C21.7595 14.1441 20.7932 13.167 19.6013 13.167C18.4093 13.167 17.443 14.1441 17.443 15.3494C17.443 16.5548 18.4093 17.5319 19.6013 17.5319Z" fill="#192161"/>
<path d="M25.5053 18.574L25.4397 18.4757L25.42 18.4495C25.1838 18.0759 25.1117 17.9973 25.0002 17.8269C23.4192 15.3954 24.3245 13.8355 25.033 13.036C25.1182 12.9376 25.2035 12.8262 25.2757 12.7345C25.3806 12.61 25.479 12.4723 25.5512 12.3281L25.5643 12.3085C25.7021 12.0332 25.7742 11.7252 25.7742 11.4106C25.7742 11.404 25.7742 11.3909 25.7742 11.3844C25.6758 10.2964 24.764 9.45752 23.6685 9.45752C22.573 9.45752 21.6611 10.2899 21.5627 11.3844C21.5627 11.7317 21.6546 12.0791 21.8186 12.3871C21.8448 12.4395 21.9629 12.5968 21.976 12.6231C22.0022 12.6624 22.0285 12.7017 22.0678 12.7345C22.14 12.8262 22.2187 12.9114 22.304 12.9901C22.5139 13.226 22.6976 13.4816 22.8485 13.7503C23.0978 14.2615 23.229 14.8252 23.229 15.3954C23.229 16.208 22.9666 16.9945 22.4811 17.6499L21.9563 18.4036C21.9366 18.4233 21.9235 18.4495 21.9104 18.4691L21.8973 18.4888C21.6939 18.8165 21.5824 19.1901 21.5824 19.5768C21.5824 19.5899 21.5824 19.603 21.5824 19.6161C21.6808 20.704 22.5926 21.5429 23.6882 21.5429C24.7837 21.5429 25.6955 20.7106 25.7939 19.6161C25.7939 19.2491 25.6955 18.8886 25.5053 18.574Z" fill="#192161"/>
<path d="M17.2397 18.4494C17.0035 18.0758 16.9314 17.9972 16.8198 17.8268C15.2389 15.3953 16.1442 13.8355 16.8526 13.0359C16.9379 12.9376 17.0232 12.8262 17.0954 12.7344C17.2003 12.6099 17.2987 12.4723 17.3709 12.3281L17.384 12.3084C17.5218 12.0266 17.5939 11.712 17.5939 11.3974C17.5939 11.3909 17.5939 11.3909 17.5939 11.3843C17.5939 11.3712 17.5939 11.3581 17.5939 11.345C17.5939 10.1784 16.6493 9.23462 15.4816 9.23462C14.3139 9.23462 13.3627 10.1784 13.3627 11.3515C13.3627 11.7186 13.4546 12.079 13.6382 12.3936C13.6645 12.446 13.7826 12.6033 13.7957 12.6295C13.8219 12.6689 13.8482 12.7082 13.8875 12.741C13.9597 12.8327 14.0384 12.9179 14.1237 12.9966C14.3336 13.226 14.5173 13.4881 14.6747 13.7568C14.9306 14.268 15.0618 14.8382 15.0618 15.415C15.0618 16.2211 14.7994 17.0076 14.3205 17.6564C13.9728 18.1414 13.6186 18.4625 13.0938 18.7509C10.8896 19.7995 9.10528 18.3511 9.10528 18.3511L8.92816 18.2069C8.79696 18.1021 8.67888 17.9775 8.5936 17.8334C7.01264 15.4019 7.91792 13.842 8.6264 13.0424C8.71168 12.9441 8.79696 12.8327 8.86912 12.741C8.97408 12.6164 9.07248 12.4788 9.14464 12.3281L9.15776 12.3084C9.30208 12.02 9.3808 11.7054 9.3808 11.3843C9.2824 10.2964 8.37056 9.45745 7.27504 9.45745C6.17952 9.45745 5.26768 10.2898 5.16928 11.3843C5.16928 11.7317 5.26112 12.079 5.42512 12.3871C5.45136 12.4395 5.56944 12.5968 5.58256 12.6295C5.6088 12.6689 5.63504 12.7082 5.6744 12.741C5.74656 12.8327 5.82528 12.9179 5.91056 12.9966C6.12048 13.226 6.30416 13.4881 6.45504 13.7568C6.70432 14.268 6.83552 14.8317 6.83552 15.4019C6.83552 16.2145 6.57312 17.001 6.08768 17.6564L5.81872 18.0365C5.39888 18.4363 5.16272 18.9868 5.16272 19.5636V19.6095C5.1824 20.763 6.12704 21.6871 7.27504 21.6871C7.83264 21.6871 8.37056 21.4642 8.77072 21.071C8.87568 20.9989 8.94128 20.9465 9.03968 20.8875C11.4734 19.308 13.0347 20.2124 13.835 20.9202C13.9006 20.9792 13.9662 21.0317 14.0318 21.0841C14.4254 21.4708 14.9568 21.6871 15.5144 21.6871C16.669 21.6871 17.6136 20.7564 17.6267 19.6029C17.607 19.1638 17.489 18.8164 17.2397 18.4494Z" fill="#192161"/>
</g>
<defs>
<clipPath id="clip0_22_944">
<rect width="164" height="31" fill="white"/>
</clipPath>
</defs>
</svg>



















