<svg width="48" height="46" viewBox="0 0 48 46" fill="none" xmlns="http://www.w3.org/2000/svg">
<path d="M13.1019 42.6189C13.1019 43.0545 12.7552 43.4078 12.3277 43.4078H0.774194C0.346645 43.4078 0 43.0545 0 42.6189C0 42.1832 0.346645 41.83 0.774194 41.83H12.3277C12.7552 41.83 13.1019 42.1831 13.1019 42.6189ZM47.7023 41.9972L44.6949 39.6041C44.3579 39.3359 43.8714 39.3969 43.6082 39.7403C43.3451 40.0836 43.4049 40.5794 43.7419 40.8476L44.9766 41.83H23.5269C12.8525 41.83 4.16835 32.9811 4.16835 22.1043C4.16835 20.1113 4.461 18.1868 5.00294 16.372L8.00555 14.7492C8.38316 14.5451 8.52706 14.0675 8.32664 13.6826C8.12632 13.2977 7.65774 13.1513 7.27994 13.3553L5.81526 14.147C8.82319 7.2224 15.6298 2.37849 23.5269 2.37849C34.2013 2.37849 42.8855 11.2274 42.8855 22.1043C42.8855 24.0803 42.6032 26.0037 42.0662 27.8283L39.0482 29.4594C38.6706 29.6635 38.5267 30.1411 38.7271 30.526C38.9273 30.9109 39.3958 31.0573 39.7738 30.8533L41.2663 30.0466C39.6974 33.6993 37.0434 36.8258 33.5452 38.9861C33.1796 39.2119 33.0628 39.697 33.2844 40.0696C33.506 40.4422 33.982 40.5613 34.3478 40.3354C37.3681 38.4702 39.8956 35.8366 41.6572 32.7193C41.9763 32.1547 42.2684 31.5757 42.5341 30.985L42.8443 32.2456C42.9324 32.6039 43.2479 32.8429 43.5946 32.8429C43.657 32.8429 43.7204 32.8351 43.7835 32.819C44.1982 32.713 44.4501 32.2846 44.3461 31.862L43.4976 28.4136C44.1146 26.3807 44.4337 24.2526 44.4337 22.1045C44.4337 16.4141 42.259 11.0643 38.3102 7.04066C34.3614 3.01699 29.1111 0.801025 23.5267 0.801025C17.9422 0.801025 12.6923 3.01669 8.74355 7.04046C6.9601 8.85764 5.54003 10.946 4.51723 13.2134L4.20948 11.963C4.10545 11.5403 3.68468 11.2835 3.27029 11.3896C2.85552 11.4957 2.60361 11.9241 2.70765 12.3468L3.55277 15.7811C2.93913 17.8024 2.62006 19.9284 2.62006 22.1044C2.62006 27.7948 4.79477 33.1446 8.74355 37.1682C12.6923 41.1919 17.9426 43.4079 23.527 43.4079H44.9766L43.7418 44.3903C43.4049 44.6584 43.345 45.1542 43.6081 45.4976C43.7608 45.6968 43.9887 45.801 44.2189 45.801C44.3856 45.801 44.5534 45.7464 44.6949 45.6339L47.7023 43.2407C47.8902 43.0912 48 42.8619 48 42.619C48 42.3761 47.8902 42.1466 47.7023 41.9972ZM27.6981 30.9388C27.6981 31.0386 27.6792 31.1337 27.646 31.2216C27.6674 31.4373 27.6794 31.655 27.6794 31.8727C27.6794 33.9418 26.3357 35.748 25.1504 37.3414C24.7915 37.8237 24.4526 38.2793 24.1736 38.7115C24.0305 38.9332 23.7874 39.0669 23.5268 39.0669C23.2662 39.0669 23.0232 38.9333 22.8799 38.7115C22.6009 38.2793 22.2619 37.8237 21.9031 37.3412C20.7178 35.7478 19.3743 33.9417 19.3743 31.8726C19.3743 31.6549 19.3864 31.4372 19.4077 31.2215C19.3745 31.1336 19.3555 31.0385 19.3555 30.9387V29.0367H18.4078L15.5796 32.03C15.4314 32.1869 15.2291 32.2718 15.0218 32.2718C14.9449 32.2718 14.8674 32.2601 14.7917 32.2362C14.5121 32.1474 14.3055 31.9054 14.2579 31.6109L12.8205 22.7006C12.7695 22.3843 12.9112 22.0681 13.1791 21.9004L16.1069 20.0679C16.1012 18.8633 16.1825 17.7083 16.3525 16.5971C17.0592 11.9804 19.3158 8.1797 23.0601 5.30059C23.3361 5.08838 23.7167 5.08838 23.9927 5.30059C27.7369 8.1796 29.9938 11.9803 30.7004 16.5971C30.8704 17.7083 30.9517 18.8632 30.946 20.0677L33.874 21.9004C34.1419 22.0681 34.2836 22.3843 34.2326 22.7006L32.7951 31.6109C32.7477 31.9054 32.541 32.1474 32.2613 32.2362C32.1856 32.2601 32.1081 32.2718 32.0313 32.2718C31.824 32.2718 31.6217 32.187 31.4735 32.03L28.6453 29.0367H27.6975L27.6981 30.9388ZM30.8734 21.8738C30.7329 23.7878 30.3864 25.8275 29.8326 28.0181L31.5182 29.8022L32.6208 22.9675L30.8734 21.8738ZM18.1501 25.0125H28.9035C30.3514 17.0173 28.5804 11.0768 23.5269 6.93051C18.4732 11.0768 16.7023 17.0173 18.1501 25.0125ZM17.2212 28.0183C16.6672 25.8277 16.3208 23.788 16.1803 21.874L14.433 22.9675L15.5356 29.8022L17.2212 28.0183ZM18.6771 27.459H28.3766C28.4492 27.1669 28.5177 26.8773 28.5825 26.5902H18.4712C18.536 26.8773 18.6046 27.1669 18.6771 27.459ZM20.9042 29.0368V30.15H26.1497V29.0368H20.9042ZM26.1311 31.8728C26.1311 31.8244 26.1295 31.776 26.1282 31.7277H20.9259C20.9244 31.776 20.923 31.8244 20.923 31.8728C20.923 33.4115 22.0487 34.9248 23.1374 36.3883C23.2702 36.567 23.4006 36.742 23.527 36.9149C23.6535 36.7421 23.7837 36.567 23.9165 36.3884C25.0053 34.9249 26.1311 33.4115 26.1311 31.8728ZM19.8495 15.995C19.8495 13.9289 21.4992 12.2479 23.5269 12.2479C25.5546 12.2479 27.2043 13.9289 27.2043 15.995C27.2043 18.0612 25.5546 19.7422 23.5269 19.7422C21.4992 19.7422 19.8495 18.0612 19.8495 15.995ZM21.3978 15.995C21.3978 17.1913 22.3529 18.1644 23.5269 18.1644C24.7008 18.1644 25.6559 17.1913 25.6559 15.995C25.6559 14.7988 24.7008 13.8256 23.5269 13.8256C22.3529 13.8256 21.3978 14.7988 21.3978 15.995Z" fill="url(#paint0_linear_144_273)"/>
<defs>
<linearGradient id="paint0_linear_144_273" x1="43.5998" y1="2.46769" x2="36.7059" y2="47.291" gradientUnits="userSpaceOnUse">
<stop stop-color="#0169F0"/>
<stop offset="0.0001" stop-color="#01C2FF"/>
<stop offset="1" stop-color="#0169F0"/>
</linearGradient>
</defs>
</svg>
