<svg width="54" height="55" viewBox="0 0 54 55" fill="none" xmlns="http://www.w3.org/2000/svg">
<path d="M45.6053 14.6932C45.3742 14.2963 45.5086 13.7872 45.9055 13.5561C46.3024 13.3249 46.8115 13.4594 47.0426 13.8563C49.6798 18.3856 50.7828 23.5421 50.2327 28.7682C49.9942 31.0342 49.4478 33.2456 48.6087 35.3409C48.4786 35.6659 48.1664 35.8636 47.8365 35.8636C47.7335 35.8636 47.6289 35.8444 47.5276 35.8038C47.1012 35.633 46.894 35.149 47.0647 34.7227C47.8467 32.7696 48.3561 30.7077 48.5787 28.594C49.0916 23.7218 48.0634 18.9149 45.6053 14.6932ZM3.03242 23.7995C3.67275 17.7166 6.64355 12.2471 11.3976 8.39858C16.1517 4.55013 22.1198 2.78339 28.2028 3.42362C32.3398 3.85907 36.2248 5.38568 39.5216 7.85803L37.3338 7.93662C36.8748 7.95315 36.5162 8.3386 36.5326 8.79754C36.5487 9.24639 36.9176 9.59931 37.363 9.59931C37.3731 9.59931 37.3833 9.5992 37.3934 9.59879L41.7686 9.44161C42.0241 9.43247 42.2611 9.30627 42.4114 9.09941C42.5617 8.89265 42.6085 8.6282 42.5384 8.38236L41.3373 4.17237C41.2112 3.73058 40.7511 3.47466 40.3094 3.60085C39.8677 3.72684 39.6119 4.18703 39.7379 4.62871L40.2154 6.30252C36.7445 3.78173 32.6879 2.22341 28.3769 1.76966C21.852 1.08255 15.4504 2.97788 10.351 7.10585C5.25176 11.2338 2.06516 17.1007 1.37826 23.6254C0.828151 28.8508 1.93127 34.0073 4.56828 38.5372C4.72275 38.8025 5.00134 38.9506 5.28772 38.9506C5.42982 38.9506 5.57369 38.9141 5.7054 38.8375C6.10228 38.6064 6.23679 38.0974 6.00571 37.7005C3.5477 33.4779 2.51953 28.6711 3.03242 23.7995ZM33.1804 47.8817C30.0314 48.9549 26.7437 49.3211 23.4082 48.97C19.2733 48.5347 15.3851 47.0076 12.0888 44.5354L14.2773 44.4569C14.7364 44.4404 15.095 44.055 15.0786 43.5959C15.0622 43.1369 14.6766 42.7764 14.2177 42.7947L9.84251 42.9519C9.587 42.961 9.35 43.0872 9.19968 43.2941C9.04937 43.5008 9.00259 43.7653 9.07266 44.0111L10.2738 48.2211C10.3781 48.5866 10.711 48.8247 11.0731 48.8247C11.1486 48.8247 11.2254 48.8144 11.3017 48.7926C11.7433 48.6666 11.9992 48.2065 11.8732 47.7648L11.3954 46.0902C14.8661 48.6108 18.9253 50.1705 23.2341 50.624C24.1109 50.7163 24.9842 50.7624 25.8536 50.7624C28.5308 50.7624 31.1662 50.3253 33.7169 49.456C34.1516 49.3079 34.3839 48.8354 34.2358 48.4006C34.0877 47.9659 33.6151 47.7333 33.1804 47.8817ZM52.8006 49.8256C52.807 50.2549 52.6465 50.6604 52.3485 50.9675L50.6618 52.7056C50.3477 53.0294 49.929 53.1922 49.5097 53.1922C49.1069 53.1922 48.7037 53.0419 48.3923 52.7399L43.7204 48.2066C43.4134 47.9087 43.2407 47.5082 43.2343 47.0788C43.2315 46.8946 43.2612 46.7154 43.3176 46.5458L41.7026 44.9786C40.1648 46.0924 38.2763 46.7501 36.2366 46.7501C33.6189 46.7501 31.2495 45.6669 29.5522 43.9258L29.0994 45.1021C28.9759 45.4232 28.6674 45.6349 28.3233 45.6349H23.2871C22.9431 45.6349 22.6346 45.4231 22.511 45.1021L21.479 42.4209C20.0484 42.0402 18.6778 41.472 17.394 40.7273L14.7665 41.8943C14.4523 42.0339 14.0843 41.9657 13.841 41.7222L10.2797 38.1612C10.0365 37.918 9.96809 37.55 10.1078 37.2355L11.2744 34.609C10.5297 33.3255 9.96133 31.9544 9.58045 30.5226L6.9001 29.4909C6.57899 29.3674 6.36725 29.0589 6.36725 28.7148V23.6786C6.36725 23.3346 6.5791 23.0262 6.9001 22.9026L9.58087 21.8706C9.96174 20.4393 10.5299 19.0687 11.2746 17.7852L10.1078 15.158C9.96809 14.8437 10.0365 14.4757 10.2797 14.2325L13.841 10.6713C14.0842 10.4281 14.4522 10.3598 14.7665 10.4993L17.394 11.6663C18.6777 10.9214 20.048 10.3534 21.479 9.97259L22.5111 7.2915C22.6347 6.97051 22.9433 6.75866 23.2872 6.75866H28.3233C28.6674 6.75866 28.9758 6.97051 29.0994 7.2915L30.1314 9.97259C31.5624 10.3534 32.9328 10.9214 34.2165 11.6663L36.8439 10.4993C37.1582 10.3598 37.5261 10.428 37.7695 10.6713L41.3307 14.2325C41.574 14.4757 41.6424 14.8436 41.5027 15.158L40.3361 17.7846C41.081 19.0682 41.6492 20.4391 42.0301 21.871L44.7105 22.9027C45.0316 23.0262 45.2433 23.3347 45.2433 23.6788V28.7149C45.2433 29.059 45.0315 29.3674 44.7105 29.491L42.3831 30.3869C44.3384 32.0999 45.5752 34.6138 45.5752 37.4115C45.5752 39.146 45.0993 40.7712 44.2722 42.1644L45.9703 43.8123C46.1381 43.7508 46.3164 43.7157 46.5006 43.7129C46.9268 43.7048 47.3354 43.8669 47.6425 44.1651L52.3141 48.6983C52.6215 48.996 52.7942 49.3964 52.8006 49.8256ZM43.2887 43.5271C43.1831 43.6487 43.0742 43.7675 42.9624 43.8835L44.3616 45.2412L44.6979 44.8946L43.2887 43.5271ZM28.353 42.4118C27.4323 40.9652 26.8981 39.2495 26.8981 37.4113C26.8981 36.8375 26.9503 36.2759 27.0499 35.7304C26.6385 35.7837 26.223 35.8114 25.8054 35.8114C20.504 35.8114 16.1909 31.4983 16.1909 26.1968C16.1909 20.8954 20.504 16.5823 25.8054 16.5823C31.1069 16.5823 35.4201 20.8954 35.4201 26.1968C35.4201 26.8503 35.3531 27.4956 35.2242 28.1277C35.5569 28.0917 35.8946 28.0726 36.2368 28.0726C37.8918 28.0726 39.4473 28.5059 40.7967 29.2642C40.8658 29.2065 40.9437 29.1588 41.03 29.1256L43.5805 28.1439V24.2498L41.0307 23.2684C40.7748 23.1699 40.5838 22.9515 40.5204 22.6848C40.1498 21.1269 39.5351 19.644 38.6934 18.2773C38.5495 18.0437 38.5301 17.7543 38.6414 17.5037L39.7512 15.005L36.9975 12.2514L34.4978 13.3616C34.2471 13.4729 33.9577 13.4534 33.7242 13.3096C32.3574 12.4679 30.8749 11.8534 29.3178 11.4828C29.0511 11.4193 28.8327 11.2284 28.7342 10.9725L27.7525 8.42207H23.8583L22.8765 10.9726C22.7781 11.2284 22.5598 11.4194 22.293 11.4829C20.736 11.8534 19.2536 12.468 17.8866 13.3097C17.653 13.4535 17.3637 13.4728 17.1131 13.3617L14.6135 12.2515L11.8598 15.0051L12.9699 17.5045C13.0812 17.7551 13.0618 18.0445 12.918 18.2781C12.0763 19.6448 11.4616 21.1274 11.0911 22.6849C11.0275 22.9516 10.8367 23.17 10.5808 23.2685L8.03056 24.2501V28.1442L10.5804 29.1256C10.8363 29.2241 11.0271 29.4424 11.0906 29.7092C11.4614 31.2673 12.0761 32.7503 12.9178 34.1167C13.0616 34.3503 13.0811 34.6397 12.9698 34.8904L11.8599 37.3892L14.6136 40.1428L17.1133 39.0326C17.3639 38.9214 17.6533 38.9407 17.8868 39.0845C19.254 39.9262 20.7365 40.5408 22.2932 40.9112C22.5599 40.9747 22.7783 41.1656 22.8767 41.4215L23.8584 43.9721H27.7526L28.353 42.4118ZM33.4147 28.5088C33.6412 27.7624 33.7569 26.9868 33.7569 26.1968C33.7569 21.8124 30.19 18.2455 25.8054 18.2455C21.421 18.2455 17.8541 21.8124 17.8541 26.1968C17.8541 30.5813 21.421 34.1482 25.8054 34.1482C26.3995 34.1482 26.9886 34.0817 27.5624 33.9525C28.595 31.372 30.7469 29.3563 33.4147 28.5088ZM36.2368 45.0869C40.4692 45.0869 43.9123 41.6437 43.9123 37.4113C43.9123 33.179 40.4691 29.7357 36.2368 29.7357C32.0046 29.7357 28.5613 33.179 28.5613 37.4113C28.5613 41.6437 32.0045 45.0869 36.2368 45.0869ZM49.4684 51.5473C49.4684 51.5474 49.4683 51.5474 49.4682 51.5475L49.4684 51.5473ZM51.1143 49.8509L46.5262 45.3987L44.9205 47.0533L49.5088 51.5056L51.1143 49.8509ZM43.0838 37.4113C43.0838 41.1868 40.0123 44.2584 36.2367 44.2584C32.4612 44.2584 29.3896 41.1869 29.3896 37.4113C29.3896 33.6357 32.4612 30.5642 36.2367 30.5642C40.0123 30.5642 43.0838 33.6358 43.0838 37.4113ZM41.4206 37.4113C41.4206 34.5529 39.0952 32.2274 36.2367 32.2274C33.3783 32.2274 31.0528 34.5529 31.0528 37.4113C31.0528 40.2697 33.3783 42.5952 36.2367 42.5952C39.0952 42.5952 41.4206 40.2697 41.4206 37.4113Z" fill="url(#paint0_linear_144_399)"/>
<defs>
<linearGradient id="paint0_linear_144_399" x1="37.5928" y1="-5.03143" x2="22.6467" y2="59.8564" gradientUnits="userSpaceOnUse">
<stop stop-color="#01C2FF"/>
<stop offset="1" stop-color="#0169F0"/>
</linearGradient>
</defs>
</svg>
