<svg width="48" height="49" viewBox="0 0 48 49" fill="none" xmlns="http://www.w3.org/2000/svg">
<path d="M42.375 8.17634H42.3075V4.55103C42.3075 3.90415 41.7825 3.37915 41.1356 3.37915C40.4887 3.37915 39.9637 3.90415 39.9637 4.55103V8.17634H39.8962C38.2162 8.17634 36.8494 9.54321 36.8494 11.2232V34.7948C36.8494 36.4748 38.2162 37.8417 39.8962 37.8417H39.9637V41.467C39.9637 42.1138 40.4887 42.6388 41.1356 42.6388C41.7825 42.6388 42.3075 42.1138 42.3075 41.467V37.8417H42.375C44.055 37.8417 45.4219 36.4748 45.4219 34.7948V11.2232C45.4219 9.54321 44.055 8.17634 42.375 8.17634Z" fill="url(#paint0_linear_144_275)"/>
<path d="M30.9515 19.5417H30.884V17.7445C30.884 17.0976 30.359 16.5726 29.7122 16.5726C29.0653 16.5726 28.5403 17.0976 28.5403 17.7445V19.5417H28.4728C26.7928 19.5417 25.4259 20.9086 25.4259 22.5886V40.2061C25.4259 41.8861 26.7928 43.2529 28.4728 43.2529H28.5403V45.0501C28.5403 45.697 29.0653 46.222 29.7122 46.222C30.359 46.222 30.884 45.697 30.884 45.0501V43.2529H30.9515C32.6315 43.2529 33.9984 41.8861 33.9984 40.2061V22.5886C33.9984 20.9086 32.6315 19.5417 30.9515 19.5417Z" fill="url(#paint1_linear_144_275)"/>
<path d="M19.5281 15.6801H19.4606V13.2491C19.4606 12.6023 18.9356 12.0773 18.2887 12.0773C17.6418 12.0773 17.1168 12.6023 17.1168 13.2491V15.6801H17.0493C15.3693 15.6801 14.0024 17.047 14.0024 18.727V29.5223C14.0024 31.2023 15.3693 32.5691 17.0493 32.5691H17.1168V35.0001C17.1168 35.647 17.6418 36.172 18.2887 36.172C18.9356 36.172 19.4606 35.647 19.4606 35.0001V32.5691H19.5281C21.2081 32.5691 22.5749 31.2023 22.5749 29.5223V18.727C22.5749 17.047 21.2081 15.6801 19.5281 15.6801Z" fill="url(#paint2_linear_144_275)"/>
<path d="M8.10375 8.72665H8.03625V4.55103C8.03625 3.90415 7.51125 3.37915 6.86438 3.37915C6.2175 3.37915 5.6925 3.90415 5.6925 4.55103V8.72665H5.625C3.945 8.72665 2.57812 10.0935 2.57812 11.7735V33.5348C2.57812 35.2148 3.945 36.5816 5.625 36.5816H5.6925V40.7573C5.6925 41.4041 6.2175 41.9291 6.86438 41.9291C7.51125 41.9291 8.03625 41.4041 8.03625 40.7573V36.5816H8.10375C9.78375 36.5816 11.1506 35.2148 11.1506 33.5348V11.7735C11.1506 10.0935 9.78375 8.72665 8.10375 8.72665Z" fill="url(#paint3_linear_144_275)"/>
<defs>
<linearGradient id="paint0_linear_144_275" x1="41.1356" y1="3.37915" x2="41.1356" y2="42.6388" gradientUnits="userSpaceOnUse">
<stop stop-color="#01C2FF"/>
<stop offset="1" stop-color="#0169F0"/>
</linearGradient>
<linearGradient id="paint1_linear_144_275" x1="29.7122" y1="16.5726" x2="29.7122" y2="46.222" gradientUnits="userSpaceOnUse">
<stop stop-color="#01C2FF"/>
<stop offset="1" stop-color="#0169F0"/>
</linearGradient>
<linearGradient id="paint2_linear_144_275" x1="18.2887" y1="12.0773" x2="18.2887" y2="36.172" gradientUnits="userSpaceOnUse">
<stop stop-color="#01C2FF"/>
<stop offset="1" stop-color="#0169F0"/>
</linearGradient>
<linearGradient id="paint3_linear_144_275" x1="6.86438" y1="3.37915" x2="6.86438" y2="41.9291" gradientUnits="userSpaceOnUse">
<stop stop-color="#01C2FF"/>
<stop offset="1" stop-color="#0169F0"/>
</linearGradient>
</defs>
</svg>
