<svg width="49" height="50" viewBox="0 0 49 50" fill="none" xmlns="http://www.w3.org/2000/svg">
<path fill-rule="evenodd" clip-rule="evenodd" d="M36.236 24.1413C36.3975 24.2362 36.574 24.2803 36.7486 24.2803C37.0996 24.2803 37.4428 24.0986 37.6315 23.773C39.0585 21.3248 39.8121 18.6757 39.8121 16.1135C39.8121 7.67031 32.9429 0.801025 24.4998 0.801025C16.0563 0.801025 9.18746 7.67031 9.18746 16.1135C9.18746 18.6757 9.94186 21.3248 11.3669 23.7738C11.6518 24.262 12.2753 24.425 12.7632 24.1424C13.2503 23.8575 13.4155 23.2328 13.1318 22.7457C11.8873 20.6081 11.229 18.3154 11.229 16.1135C11.229 8.79631 17.1823 2.84293 24.4998 2.84293C31.8169 2.84293 37.7702 8.79631 37.7702 16.1135C37.7702 18.3154 37.1119 20.6081 35.8674 22.745C35.5837 23.2317 35.7482 23.8575 36.236 24.1413ZM5.82624 31.725L15.3128 41.2116L16.6326 39.8918C16.8236 39.6996 17.0838 39.5927 17.3545 39.5927H31.2818L42.0991 30.7421L46.6236 23.5034C46.3848 23.3636 46.1335 23.2593 45.9376 23.2593C45.033 23.2593 44.3186 23.2593 42.5761 25.0018L40.5342 27.0437C40.4751 27.1027 40.4097 27.1536 40.3383 27.1966L36.3217 29.6066C36.5955 30.1547 36.7497 30.7727 36.7497 31.426C36.7497 33.678 34.9183 35.5095 32.6663 35.5095H23.4789C22.9163 35.5095 22.4579 35.9667 22.4579 36.5304C22.4579 37.0949 22.0007 37.551 21.4374 37.551C20.8736 37.551 20.4164 37.0949 20.4164 36.5304C20.4164 34.8418 21.7903 33.4679 23.4789 33.4679H32.6663C33.7923 33.4679 34.7078 32.552 34.7078 31.426C34.7078 30.3 33.7923 29.3845 32.6663 29.3845H23.4789C23.3697 29.3845 23.2606 29.3662 23.1563 29.3314L20.2512 28.3636H15.3124C13.6339 28.3636 12.0376 28.9987 10.9299 30.1064L9.909 31.127C9.51011 31.5262 8.86487 31.5262 8.46561 31.127C8.06636 30.7281 8.06636 30.0828 8.46561 29.6836L9.48656 28.6626C10.9737 27.1755 13.0971 26.322 15.3124 26.322H20.4164C20.5256 26.322 20.6347 26.3403 20.739 26.3751L23.6441 27.343H32.6663C33.5138 27.343 34.3017 27.6023 34.9548 28.0458L39.1805 25.5102L41.1335 23.5573C43.3006 21.3901 44.541 21.2178 45.9376 21.2178C47.341 21.2178 48.5661 22.4028 48.701 22.5374C49.0367 22.8735 49.0969 23.3973 48.845 23.8002L43.7406 31.9671C43.6815 32.061 43.6079 32.1454 43.5212 32.2161L32.2922 41.4036C32.1094 41.5527 31.8806 41.6342 31.6459 41.6342H17.7773L16.7562 42.6551L18.0761 43.975C18.475 44.3742 18.475 45.0195 18.0761 45.4188L13.9927 49.5018C13.7934 49.7011 13.5321 49.8009 13.2708 49.8009C13.0095 49.8009 12.7482 49.7011 12.5493 49.5018C12.1501 49.1029 12.1501 48.4577 12.5493 48.0584L15.9109 44.6969L5.10436 33.8903L1.74283 37.2519C1.34357 37.6511 0.698327 37.6511 0.299443 37.2519C-0.0998143 36.853 -0.0998143 36.2077 0.299443 35.8085L4.38249 31.725C4.78174 31.3262 5.42698 31.3262 5.82624 31.725ZM23.4793 23.2597H22.458C20.7698 23.2597 19.3955 21.8859 19.3955 20.1973C19.3955 19.6339 19.8531 19.1763 20.4165 19.1763C20.9798 19.1763 21.4374 19.6339 21.4374 20.1973C21.4374 20.7599 21.8957 21.2182 22.458 21.2182H23.4793V17.1348H22.458C20.7698 17.1348 19.3955 15.7609 19.3955 14.0723V12.0307C19.3955 10.3421 20.7698 8.96826 22.458 8.96826H23.4793V7.9471C23.4793 7.38373 23.9365 6.92615 24.5002 6.92615C25.0636 6.92615 25.5208 7.38373 25.5208 7.9471V8.96826H26.5414C28.23 8.96826 29.6039 10.3421 29.6039 12.0307C29.6039 12.5941 29.1474 13.0513 28.5829 13.0513C28.0184 13.0513 27.5624 12.5941 27.5624 12.0307C27.5624 11.4681 27.1048 11.0098 26.5414 11.0098H25.5208V15.0932H26.5414C28.23 15.0932 29.6039 16.4671 29.6039 18.1557V20.1973C29.6039 21.8859 28.23 23.2597 26.5414 23.2597H25.5208V24.2805C25.5208 24.8439 25.0636 25.3011 24.5002 25.3011C23.9365 25.3011 23.4793 24.8439 23.4793 24.2805V23.2597ZM25.5208 21.2182H26.5414C27.1048 21.2182 27.5624 20.7599 27.5624 20.1973V18.1557C27.5624 17.5931 27.1048 17.1348 26.5414 17.1348H25.5208V21.2182ZM23.4793 15.0932H22.458C21.8957 15.0932 21.4374 14.6349 21.4374 14.0723V12.0307C21.4374 11.4681 21.8957 11.0098 22.458 11.0098H23.4793V15.0932ZM32.6668 15.0931H34.7083V17.1347H32.6668V15.0931ZM16.3334 15.0931H14.2919V17.1347H16.3334V15.0931Z" fill="url(#paint0_linear_144_238)"/>
<defs>
<linearGradient id="paint0_linear_144_238" x1="13.8954" y1="46.9187" x2="48.3559" y2="2.10741" gradientUnits="userSpaceOnUse">
<stop stop-color="#0169F0"/>
<stop offset="1" stop-color="#01C2FF"/>
</linearGradient>
</defs>
</svg>
