<svg width="65" height="65" viewBox="0 0 65 65" fill="none" xmlns="http://www.w3.org/2000/svg">
<path d="M4.97663 38.9834L8.06679 41.0559C8.24609 41.1764 8.45958 41.2358 8.67537 41.225C8.89116 41.2142 9.09768 41.134 9.2641 40.9962C10.1069 40.2926 10.9092 39.5418 11.667 38.7475L14.1531 39.7545C14.2907 40.1086 14.5 40.4303 14.7679 40.6995C15.2769 41.2094 15.9663 41.499 16.6867 41.506C16.7365 42.2688 17.0602 42.9878 17.5982 43.5307C18.1778 44.1081 18.9582 44.4398 19.7762 44.4568C19.793 45.2895 20.1364 46.0823 20.7324 46.6641C21.3284 47.246 22.1292 47.5703 22.9621 47.5671C22.9932 47.5671 23.0228 47.559 23.0538 47.5582C23.105 48.3184 23.4283 49.0347 23.9645 49.576C24.5647 50.1741 25.3779 50.5099 26.2253 50.5099C27.0726 50.5099 27.8853 50.1741 28.4855 49.576L29.1785 48.883L31.5756 49.5916C31.9784 49.7111 32.3964 49.7718 32.8165 49.7718C33.5075 49.7718 34.1888 49.6095 34.8056 49.298C35.4223 48.9865 35.9573 48.5344 36.3673 47.9783L36.7479 47.4601L36.7564 47.4623C37.7121 47.7148 38.7258 47.6263 39.6233 47.2121C40.5208 46.798 41.2459 46.084 41.6739 45.1931L41.6866 45.1668L41.973 45.2489C42.3901 45.369 42.8219 45.4299 43.2559 45.43C44.1667 45.4295 45.0578 45.1649 45.8213 44.6683C46.5847 44.1717 47.1879 43.4644 47.5576 42.6321L47.6807 42.3529C48.3424 42.3189 48.9814 42.1001 49.5252 41.7213C50.0689 41.3426 50.4956 40.819 50.7569 40.2101C50.8127 40.066 50.8588 39.9184 50.8949 39.7681L53.5676 38.7423C54.2908 39.5252 55.0529 40.2712 55.851 40.9776C56.0133 41.1197 56.2171 41.2058 56.4321 41.223C56.6471 41.2403 56.862 41.1879 57.0449 41.0735L60.2016 39.094C60.427 38.9528 60.587 38.7278 60.6465 38.4686C60.706 38.2093 60.6601 37.9371 60.5188 37.7117C60.3776 37.4863 60.1526 37.3263 59.8934 37.2668C59.6341 37.2073 59.3619 37.2533 59.1365 37.3945L56.6205 38.9726C52.1632 34.8919 49.1013 29.5135 47.8674 23.5977L58.1702 17.1011C58.3948 16.9592 58.5539 16.734 58.6125 16.4749C58.6711 16.2158 58.6244 15.944 58.4827 15.7193C58.341 15.4946 58.116 15.3353 57.8569 15.2765C57.5979 15.2176 57.326 15.2641 57.1012 15.4055L46.2398 22.2545C46.0811 22.3543 45.9536 22.4967 45.8719 22.6655C45.7902 22.8343 45.7576 23.0226 45.7778 23.209C46.6237 28.3377 48.8281 33.1461 52.1618 37.1342L50.8263 37.6468C50.6695 37.1911 50.4212 36.7723 50.0967 36.4161C49.7721 36.0599 49.3781 35.7739 48.9389 35.5755L40.0796 31.6204C39.512 31.3666 39.0138 30.98 38.6271 30.4932C38.2403 30.0064 37.9763 29.4338 37.8573 28.8235L37.4414 26.686L37.8646 26.334C37.9658 26.2498 38.0494 26.1464 38.1107 26.0299C38.1719 25.9134 38.2096 25.786 38.2216 25.6549C38.2336 25.5238 38.2197 25.3916 38.1806 25.2659C38.1415 25.1402 38.0781 25.0234 37.9939 24.9223C37.9097 24.8211 37.8063 24.7375 37.6898 24.6762C37.5733 24.615 37.4459 24.5773 37.3148 24.5653C37.1837 24.5533 37.0515 24.5672 36.9258 24.6063C36.8001 24.6454 36.6833 24.7088 36.5822 24.793L34.6962 26.3614C34.2949 26.6871 33.9744 27.1012 33.7598 27.5714C33.0734 28.8049 32.1834 29.9134 31.1273 30.85C31.0161 30.9526 30.8761 31.0186 30.7263 31.0392C30.5764 31.0598 30.4239 31.0339 30.2892 30.9651C30.1545 30.8963 30.0441 30.7878 29.973 30.6543C29.9018 30.5208 29.8733 30.3687 29.8913 30.2185L30.4611 25.5028C30.5149 25.0511 30.7415 24.6378 31.0935 24.3495L35.4617 20.7625C35.7204 20.5507 36.0338 20.4165 36.3656 20.3756C36.6975 20.3347 37.0341 20.3888 37.3365 20.5315L43.67 23.5272C43.9104 23.6409 44.1862 23.6545 44.4366 23.5649C44.687 23.4753 44.8916 23.2899 45.0053 23.0494C45.1191 22.809 45.1326 22.5333 45.043 22.2828C44.9534 22.0324 44.768 21.8278 44.5276 21.7141L38.1936 18.7184C37.5472 18.4153 36.8284 18.301 36.1199 18.3886C35.4114 18.4762 34.742 18.7623 34.189 19.2138L33.2375 19.9951L32.4264 19.7043C31.4904 19.3703 30.4962 19.2307 29.5045 19.2938C28.5127 19.3569 27.5443 19.6215 26.6582 20.0714L20.8102 23.0524C20.693 23.1122 20.5887 23.1944 20.5032 23.2945C20.4178 23.3946 20.3529 23.5106 20.3122 23.6358C20.2716 23.761 20.256 23.8929 20.2664 24.0241C20.2767 24.1553 20.3128 24.2832 20.3726 24.4004C20.4324 24.5177 20.5147 24.622 20.6148 24.7075C20.7149 24.7929 20.8308 24.8578 20.956 24.8984C21.0812 24.9391 21.2132 24.9546 21.3444 24.9443C21.4756 24.9339 21.6034 24.8978 21.7207 24.838L27.5686 21.857C28.7561 21.2642 30.1227 21.1387 31.3982 21.5055L29.8208 22.8008C29.0695 23.4157 28.5856 24.2978 28.4708 25.2619L27.901 29.9777C27.8545 30.3627 27.8901 30.7532 28.0055 31.1235C28.1209 31.4938 28.3135 31.8354 28.5705 32.1258C28.8275 32.4162 29.1431 32.6489 29.4966 32.8085C29.85 32.9681 30.2333 33.051 30.6211 33.0517C30.7112 33.0517 30.8017 33.0468 30.8923 33.038C31.4915 32.9818 32.0551 32.728 32.4944 32.3165C33.7516 31.2027 34.7998 29.8732 35.5895 28.3908C35.6202 28.3298 35.6561 28.2715 35.697 28.2168L35.8895 29.2072C36.0701 30.1333 36.4709 31.0023 37.058 31.741C37.645 32.4796 38.4012 33.0662 39.2626 33.4511L48.1215 37.4062C48.4792 37.566 48.7629 37.8558 48.9151 38.2168C49.0673 38.5779 49.0766 38.9832 48.9411 39.3509C48.8057 39.7185 48.5356 40.021 48.1856 40.1971C47.8356 40.3731 47.4318 40.4096 47.0558 40.2991L38.4427 37.7645C38.3165 37.7274 38.1842 37.7155 38.0533 37.7295C37.9224 37.7434 37.7956 37.7831 37.6801 37.8461C37.5645 37.9091 37.4625 37.9942 37.3799 38.0966C37.2972 38.1991 37.2356 38.3167 37.1984 38.443C37.1613 38.5693 37.1494 38.7016 37.1633 38.8324C37.1773 38.9633 37.217 39.0901 37.28 39.2057C37.343 39.3212 37.4281 39.4232 37.5305 39.5059C37.6329 39.5885 37.7506 39.6501 37.8769 39.6873L45.6446 41.986C45.3565 42.5323 44.8895 42.9632 44.3217 43.2064C43.754 43.4497 43.1199 43.4906 42.5256 43.3223L35.5469 41.3212C35.4204 41.285 35.288 41.274 35.1572 41.2889C35.0265 41.3038 34.9 41.3444 34.7849 41.4082C34.6698 41.472 34.5684 41.5579 34.4865 41.6609C34.4046 41.7639 34.3438 41.882 34.3075 42.0085C34.2713 42.135 34.2603 42.2674 34.2752 42.3982C34.2901 42.5289 34.3306 42.6554 34.3944 42.7705C34.4583 42.8856 34.5441 42.987 34.6471 43.0689C34.7501 43.1508 34.8683 43.2116 34.9948 43.2479L39.71 44.6008C39.4502 44.9899 39.0752 45.288 38.6377 45.4535C38.2001 45.619 37.7217 45.6437 37.2694 45.524L33.0392 44.405C32.8732 44.3634 32.6993 44.3655 32.5344 44.4111C32.3695 44.4567 32.2192 44.5442 32.0982 44.6652C32.0983 44.6543 32.1013 44.644 32.1013 44.6331C32.1029 44.2134 32.0212 43.7977 31.861 43.4098C31.7007 43.022 31.4651 42.6698 31.1678 42.3736C30.7892 42.0102 30.3282 41.7437 29.8242 41.597C29.3203 41.4504 28.7883 41.4278 28.2738 41.5312C28.1866 41.1031 28.0117 40.6976 27.7601 40.3403C27.5085 39.983 27.1857 39.6817 26.812 39.4553C26.4383 39.2288 26.0217 39.0822 25.5885 39.0247C25.1554 38.9671 24.715 38.9999 24.2951 39.1208C24.103 38.3422 23.6213 37.6661 22.9483 37.23C22.2752 36.7939 21.4613 36.6307 20.6721 36.7736C20.553 36.2953 20.307 35.8581 19.96 35.508C19.4396 34.9889 18.7346 34.6974 17.9996 34.6974C17.2646 34.6974 16.5595 34.9889 16.0392 35.508L14.7684 36.7787C14.5301 37.019 14.3381 37.3013 14.2022 37.6113L13.091 37.1613C16.4609 33.1979 18.587 28.3287 19.2032 23.163C19.2143 22.9837 19.1769 22.8047 19.0949 22.6448C19.0129 22.485 18.8893 22.3502 18.7372 22.2545L7.87537 15.4056C7.65052 15.2641 7.37871 15.2177 7.11966 15.2765C6.86061 15.3354 6.63551 15.4946 6.49384 15.7194C6.35216 15.9441 6.30549 16.2158 6.36408 16.4749C6.42268 16.7341 6.58174 16.9593 6.80633 17.1012L17.1361 23.6153C16.158 29.579 13.1213 35.0114 8.55385 38.9687L6.09366 37.3191C5.98438 37.2458 5.86173 37.1947 5.7327 37.1687C5.60368 37.1428 5.4708 37.1425 5.34167 37.1679C5.21253 37.1933 5.08967 37.2439 4.98009 37.3168C4.87051 37.3897 4.77636 37.4835 4.70301 37.5927C4.62967 37.702 4.57857 37.8247 4.55262 37.9537C4.52668 38.0827 4.5264 38.2156 4.55181 38.3447C4.57722 38.4739 4.62782 38.5967 4.70071 38.7063C4.7736 38.8159 4.86735 38.91 4.97663 38.9834ZM31.1679 46.8936C31.4819 46.5781 31.7257 46.1997 31.8833 45.7834C31.9417 45.9189 32.0298 46.0396 32.1411 46.1365C32.2524 46.2334 32.384 46.3041 32.5262 46.3434L34.6528 46.9059C34.3537 47.2628 33.9573 47.5249 33.5118 47.6604C33.0664 47.7959 32.5911 47.7989 32.144 47.669L30.7921 47.2694L31.1679 46.8936ZM28.0645 43.7912C28.2925 43.5761 28.594 43.4564 28.9074 43.4564C29.2208 43.4564 29.5223 43.5761 29.7503 43.7912C29.972 44.0155 30.0964 44.3182 30.0964 44.6336C30.0964 44.949 29.972 45.2517 29.7503 45.476L27.0679 48.1584C26.8444 48.3819 26.5412 48.5075 26.2251 48.5075C25.909 48.5074 25.6059 48.3819 25.3824 48.1583C25.1589 47.9348 25.0333 47.6316 25.0333 47.3155C25.0333 46.9994 25.1589 46.6963 25.3825 46.4728L28.0645 43.7912ZM24.3076 41.3418C24.5311 41.1182 24.8342 40.9926 25.1503 40.9925C25.4664 40.9924 25.7695 41.1179 25.9931 41.3414C26.2166 41.5648 26.3423 41.868 26.3423 42.184C26.3424 42.5001 26.2169 42.8033 25.9935 43.0268L23.804 45.2156C23.5763 45.4306 23.275 45.5504 22.9618 45.5504C22.6486 45.5504 22.3473 45.4306 22.1196 45.2156C21.8979 44.9913 21.7731 44.6886 21.7731 44.3732C21.7731 44.0578 21.8974 43.7551 22.1192 43.5308L24.3076 41.3418ZM20.3692 39.0734C20.4799 38.9628 20.6113 38.875 20.7559 38.815C20.9006 38.7551 21.0556 38.7243 21.2121 38.7243C21.3686 38.7243 21.5237 38.7551 21.6683 38.815C21.8129 38.875 21.9443 38.9628 22.055 39.0735C22.1657 39.1841 22.2535 39.3156 22.3134 39.4602C22.3733 39.6048 22.4041 39.7598 22.4041 39.9164C22.4041 40.0729 22.3733 40.2279 22.3134 40.3725C22.2535 40.5172 22.1657 40.6486 22.055 40.7593L20.7016 42.1132C20.4779 42.3363 20.1749 42.4615 19.859 42.4613C19.5431 42.4611 19.2402 42.3355 19.0169 42.1121C18.7935 41.8887 18.668 41.5858 18.6679 41.2699C18.6678 40.954 18.7931 40.651 19.0162 40.4274L20.3692 39.0734ZM16.186 38.1963L17.4567 36.9256C17.601 36.783 17.7958 36.7033 17.9986 36.7039C18.2014 36.7045 18.3958 36.7853 18.5392 36.9288C18.6826 37.0722 18.7635 37.2665 18.7641 37.4693C18.7647 37.6722 18.685 37.867 18.5424 38.0112L17.2712 39.282C17.1246 39.4206 16.9306 39.4978 16.7288 39.4978C16.5271 39.4978 16.333 39.4206 16.1865 39.282C16.0438 39.1373 15.9633 38.9423 15.9633 38.7391C15.9633 38.5359 16.0433 38.3409 16.186 38.1963Z" fill="url(#paint0_linear_144_319)"/>
<defs>
<linearGradient id="paint0_linear_144_319" x1="32.6024" y1="15.2516" x2="32.6024" y2="50.5099" gradientUnits="userSpaceOnUse">
<stop stop-color="#0169F0"/>
<stop offset="1" stop-color="#01C2FF"/>
</linearGradient>
</defs>
</svg>
