<svg width="45" height="41" viewBox="0 0 45 41" fill="none" xmlns="http://www.w3.org/2000/svg">
<defs>
    <linearGradient id="paint0_linear" x1="32.6024" y1="15.2516" x2="32.6024" y2="50.5099" gradientUnits="userSpaceOnUse">
        <stop stop-color="#0169F0"/>
        <stop offset="1" stop-color="#01C2FF"/>
    </linearGradient>
</defs>
<path fill-rule="evenodd" clip-rule="evenodd" d="M2.56786 31.062C2.92848 31.694 3.41019 32.2479 3.98512 32.6915C4.56005 33.1351 5.21677 33.4597 5.91727 33.6463C6.38533 33.7725 6.8678 33.8364 7.35238 33.8366C8.31808 33.8359 9.26646 33.5786 10.1015 33.0909L11.3938 32.3409L15.6504 39.7484C15.7242 39.8769 15.8303 39.9836 15.9582 40.0578C16.086 40.132 16.2309 40.1711 16.3785 40.1711C16.5259 40.1708 16.6708 40.1321 16.7989 40.0587L19.3286 38.586C19.9236 38.2393 20.3576 37.6695 20.5356 37.0016C20.7135 36.3336 20.6208 35.622 20.2777 35.0226L16.8997 29.1453L17.8975 28.5663C20.6747 26.9502 23.7344 25.8847 26.9108 25.4274L33.8946 24.4129C34.4109 25.016 35.1324 25.4037 35.9179 25.5002C36.7034 25.5967 37.4965 25.395 38.1419 24.9346C38.7874 24.4742 39.2388 23.7881 39.4078 23.0107C39.5768 22.2333 39.4513 21.4205 39.0558 20.7312L35.3865 14.3403L35.6063 14.2127C35.9703 14.0042 36.2898 13.7255 36.5462 13.3924C36.8027 13.0593 36.9912 12.6786 37.1008 12.272C37.2104 11.8655 37.239 11.4411 37.1849 11.0234C37.1309 10.6057 36.9952 10.2028 36.7857 9.83804C36.5763 9.47323 36.2972 9.15367 35.9644 8.89774C35.6317 8.6418 35.252 8.45453 34.847 8.34671C34.4421 8.23889 34.0199 8.21265 33.6048 8.26948C33.1898 8.32632 32.7899 8.46511 32.4284 8.67789L32.2087 8.80541L28.5401 2.41565C28.147 1.72124 27.5094 1.20013 26.7531 0.955048C25.9968 0.709969 25.1766 0.758709 24.4542 1.09166C23.7318 1.42461 23.1597 2.01761 22.8507 2.75375C22.5416 3.48989 22.518 4.31575 22.7846 5.06851L18.4213 10.6481C16.439 13.1856 13.9915 15.3175 11.2113 16.9286L9.48696 17.9304L3.4153 21.4557C2.15012 22.1926 1.2272 23.4039 0.848953 24.824C0.470703 26.2442 0.668003 27.7572 1.39758 29.0313L2.56786 31.062ZM11.2776 30.4484C11.3093 30.43 11.3421 30.4137 11.3758 30.3997L14.6036 28.5258L9.60214 19.8182L4.25854 22.9165C3.82176 23.1686 3.43904 23.5053 3.13253 23.9072C2.82602 24.309 2.6018 24.7679 2.47286 25.2575C2.34175 25.7465 2.30842 26.2569 2.37481 26.759C2.44119 27.261 2.60596 27.7449 2.85959 28.1825L4.02398 30.2166C4.53237 31.102 5.36971 31.748 6.3518 32.0126C7.33389 32.2772 8.38029 32.1387 9.26081 31.6275L11.1865 30.5095C11.2155 30.4872 11.2459 30.4668 11.2776 30.4484ZM16.6828 38.1709L12.8498 31.4958L15.4431 29.9905L18.8199 35.8714C18.9405 36.0826 18.9728 36.3332 18.9097 36.5682C18.8467 36.8033 18.6934 37.0036 18.4837 37.1251L16.6828 38.1709ZM33.5064 14.4556C33.4911 14.429 33.4773 14.4016 33.465 14.3735L27.084 3.2602C26.8853 2.91494 26.5585 2.66307 26.1753 2.55988C25.7921 2.45669 25.3839 2.51063 25.0402 2.70985C24.8697 2.80879 24.7202 2.94141 24.6003 3.09849C24.4804 3.25556 24.3925 3.43486 24.3416 3.62613C24.2907 3.8174 24.2778 4.01688 24.3036 4.21317C24.3294 4.40946 24.3935 4.5987 24.4921 4.77008L35.0094 23.0772V23.0814C35.1057 23.2562 35.2357 23.41 35.3917 23.5337C35.5477 23.6575 35.7267 23.7487 35.9182 23.8022C36.1097 23.8556 36.3098 23.8702 36.507 23.845C36.7041 23.8198 36.8943 23.7554 37.0664 23.6556C37.2385 23.5557 37.3891 23.4224 37.5095 23.2633C37.6298 23.1043 37.7174 22.9227 37.7672 22.7293C37.817 22.5358 37.828 22.3344 37.7995 22.1366C37.771 21.9388 37.7037 21.7487 37.6014 21.5774L33.5564 14.5327C33.5384 14.508 33.5217 14.4823 33.5064 14.4556ZM34.7656 12.7485L34.5458 12.876L33.0502 10.2711L33.2691 10.1438C33.5253 9.99533 33.8195 9.9265 34.1145 9.94598C34.4095 9.96546 34.6922 10.0724 34.9269 10.2533C35.1615 10.4342 35.3376 10.6809 35.433 10.9623C35.5283 11.2438 35.5386 11.5473 35.4626 11.8346C35.4121 12.0256 35.3245 12.2047 35.2049 12.3616C35.0853 12.5184 34.936 12.6499 34.7656 12.7485ZM12.0553 18.3903C15.021 16.6715 17.6317 14.3973 19.7462 11.6905L23.6564 6.69252L32.9312 22.8455L26.672 23.7526C23.284 24.2412 20.0203 25.3779 17.0576 27.1013L16.0588 27.6804L11.0566 18.9728L12.0553 18.3903ZM36.8969 5.51552C36.8231 5.51561 36.7495 5.50566 36.6783 5.48593C36.5717 5.45719 36.4717 5.4076 36.3841 5.33999C36.2965 5.27239 36.223 5.1881 36.1678 5.09193C36.1126 4.99576 36.0768 4.8896 36.0624 4.77951C36.048 4.66942 36.0554 4.55756 36.084 4.45032L36.6893 2.18042C36.7179 2.07318 36.7672 1.97265 36.8344 1.88457C36.9017 1.79649 36.9855 1.72259 37.0811 1.66709C37.1768 1.61159 37.2823 1.57557 37.3918 1.5611C37.5013 1.54662 37.6125 1.55397 37.7192 1.58273C37.8258 1.61148 37.9258 1.66108 38.0134 1.72868C38.101 1.79629 38.1744 1.88058 38.2296 1.97675C38.2848 2.07291 38.3207 2.17907 38.335 2.28915C38.3494 2.39924 38.3421 2.51109 38.3135 2.61834L37.7082 4.88823C37.6605 5.06799 37.5551 5.22689 37.4084 5.34031C37.2618 5.45372 37.082 5.5153 36.8969 5.51552ZM39.9479 8.99843C39.8201 9.07264 39.6751 9.11171 39.5275 9.11171C39.3424 9.1117 39.1626 9.0503 39.0157 8.93701C38.8689 8.82372 38.7634 8.66488 38.7155 8.48512C38.6676 8.30537 38.68 8.11475 38.7508 7.94282C38.8216 7.77089 38.9469 7.62726 39.1072 7.5342L41.1308 6.3591C41.2264 6.30359 41.332 6.26757 41.4415 6.2531C41.551 6.23863 41.6623 6.24599 41.769 6.27476C41.8757 6.30353 41.9757 6.35315 42.0633 6.42078C42.1509 6.48842 42.2244 6.57274 42.2796 6.66894C42.3348 6.76514 42.3706 6.87133 42.385 6.98144C42.3994 7.09156 42.3921 7.20345 42.3635 7.31073C42.3349 7.418 42.2855 7.51855 42.2183 7.60665C42.151 7.69475 42.0671 7.76866 41.9715 7.82417L39.9479 8.99843ZM40.4952 12.146C40.4377 12.3625 40.468 12.593 40.5794 12.7871C40.6909 12.9811 40.8744 13.1227 41.0896 13.1808L43.3469 13.7894C43.5623 13.8475 43.7918 13.8172 43.985 13.7051C44.1781 13.593 44.3191 13.4083 44.3768 13.1917C44.4346 12.9752 44.4044 12.7444 44.2929 12.5501C44.1814 12.3559 43.9978 12.2142 43.7824 12.1561L41.5251 11.5474C41.4184 11.5187 41.3071 11.5114 41.1976 11.5259C41.088 11.5404 40.9824 11.5765 40.8868 11.6321C40.7911 11.6877 40.7073 11.7617 40.6401 11.8499C40.573 11.938 40.5237 12.0387 40.4952 12.146Z" fill="url(#paint0_linear)"/>
</svg>
