<svg width="42" height="51" viewBox="0 0 42 51" fill="none" xmlns="http://www.w3.org/2000/svg" className="iconSVG">
<path d="M12.5257 36.3313H10.8732C10.4168 36.3313 10.0469 36.7013 10.0469 37.1576C10.0469 37.6139 10.4168 37.9839 10.8732 37.9839H12.5257C12.9821 37.9839 13.352 37.6139 13.352 37.1576C13.352 36.7013 12.9821 36.3313 12.5257 36.3313Z" fill="url(#paint0_linear_0_1)"/>
<path d="M35.6618 36.3313H15.8309C15.3746 36.3313 15.0046 36.7013 15.0046 37.1576C15.0046 37.6139 15.3746 37.9839 15.8309 37.9839H35.6618C36.1181 37.9839 36.4881 37.6139 36.4881 37.1576C36.4881 36.7013 36.1181 36.3313 35.6618 36.3313Z" fill="url(#paint1_linear_0_1)"/>
<path d="M12.5257 31.3737H10.8732C10.4168 31.3737 10.0469 31.7436 10.0469 32.1999C10.0469 32.6563 10.4168 33.0262 10.8732 33.0262H12.5257C12.9821 33.0262 13.352 32.6563 13.352 32.1999C13.352 31.7436 12.9821 31.3737 12.5257 31.3737Z" fill="url(#paint2_linear_0_1)"/>
<path d="M35.6618 31.3737H15.8309C15.3746 31.3737 15.0046 31.7436 15.0046 32.1999C15.0046 32.6563 15.3746 33.0262 15.8309 33.0262H35.6618C36.1181 33.0262 36.4881 32.6563 36.4881 32.1999C36.4881 31.7436 36.1181 31.3737 35.6618 31.3737Z" fill="url(#paint3_linear_0_1)"/>
<path d="M12.5257 26.4159H10.8732C10.4168 26.4159 10.0469 26.7859 10.0469 27.2422C10.0469 27.6985 10.4168 28.0685 10.8732 28.0685H12.5257C12.9821 28.0685 13.352 27.6985 13.352 27.2422C13.352 26.7859 12.9821 26.4159 12.5257 26.4159Z" fill="url(#paint4_linear_0_1)"/>
<path d="M35.6618 26.4159H15.8309C15.3746 26.4159 15.0046 26.7859 15.0046 27.2422C15.0046 27.6985 15.3746 28.0685 15.8309 28.0685H35.6618C36.1181 28.0685 36.4881 27.6985 36.4881 27.2422C36.4881 26.7859 36.1181 26.4159 35.6618 26.4159Z" fill="url(#paint5_linear_0_1)"/>
<path d="M12.5257 21.4581H10.8732C10.4168 21.4581 10.0469 21.8281 10.0469 22.2844C10.0469 22.7407 10.4168 23.1107 10.8732 23.1107H12.5257C12.9821 23.1107 13.352 22.7407 13.352 22.2844C13.352 21.8281 12.9821 21.4581 12.5257 21.4581Z" fill="url(#paint6_linear_0_1)"/>
<path d="M35.6618 21.4581H15.8309C15.3746 21.4581 15.0046 21.8281 15.0046 22.2844C15.0046 22.7407 15.3746 23.1107 15.8309 23.1107H35.6618C36.1181 23.1107 36.4881 22.7407 36.4881 22.2844C36.4881 21.8281 36.1181 21.4581 35.6618 21.4581Z" fill="url(#paint7_linear_0_1)"/>
<path d="M12.5257 16.5005H10.8732C10.4168 16.5005 10.0469 16.8705 10.0469 17.3268C10.0469 17.7831 10.4168 18.1531 10.8732 18.1531H12.5257C12.9821 18.1531 13.352 17.7831 13.352 17.3268C13.352 16.8705 12.9821 16.5005 12.5257 16.5005Z" fill="url(#paint8_linear_0_1)"/>
<path d="M35.6618 16.5005H15.8309C15.3746 16.5005 15.0046 16.8705 15.0046 17.3268C15.0046 17.7831 15.3746 18.1531 15.8309 18.1531H35.6618C36.1181 18.1531 36.4881 17.7831 36.4881 17.3268C36.4881 16.8705 36.1181 16.5005 35.6618 16.5005Z" fill="url(#paint9_linear_0_1)"/>
<path d="M41.435 13.1433C41.4309 13.0709 41.4168 12.9994 41.3929 12.9309C41.3838 12.9045 41.3772 12.8789 41.3656 12.8532C41.3255 12.7634 41.2695 12.6814 41.2004 12.6111L29.6324 1.04313C29.5621 0.974029 29.4801 0.918048 29.3903 0.87787C29.3647 0.866302 29.339 0.859692 29.3134 0.850603C29.2443 0.826847 29.1723 0.812387 29.0994 0.807636C29.0854 0.810115 29.0697 0.801025 29.0515 0.801025H5.91547C5.45916 0.801025 5.08919 1.171 5.08919 1.62731V4.10617H0.957756C0.501439 4.10617 0.13147 4.47614 0.13147 4.93246V49.5519C0.13147 50.0082 0.501439 50.3782 0.957756 50.3782H35.6618C36.1181 50.3782 36.4881 50.0082 36.4881 49.5519V45.4205H40.6195C41.0758 45.4205 41.4458 45.0505 41.4458 44.5942V13.1953C41.4458 13.1771 41.4367 13.1614 41.435 13.1433ZM29.8778 3.62197L38.6248 12.369H29.8778V3.62197ZM34.8355 48.7256H1.78404V5.75874H5.08919V44.5942C5.08919 45.0505 5.45916 45.4205 5.91547 45.4205H34.8355V48.7256ZM39.7932 43.7679H6.74176V2.4536H28.2252V13.1953C28.2252 13.6516 28.5952 14.0216 29.0515 14.0216H39.7932V43.7679Z" fill="url(#paint10_linear_0_1)"/>
<path d="M15.8309 8.23755H10.8732C10.4168 8.23755 10.0469 8.60752 10.0469 9.06384V14.0216C10.0469 14.4779 10.4168 14.8478 10.8732 14.8478H15.8309C16.2872 14.8478 16.6572 14.4779 16.6572 14.0216V9.06384C16.6572 8.60752 16.2872 8.23755 15.8309 8.23755ZM15.0046 13.1953H11.6994V9.89012H15.0046V13.1953Z" fill="url(#paint11_linear_0_1)"/>
<defs>
<linearGradient id="paint0_linear_0_1" x1="11.6994" y1="36.3313" x2="11.6994" y2="37.9839" gradientUnits="userSpaceOnUse">
<stop stop-color="#01C2FF"/>
<stop offset="1" stop-color="#0169F0"/>
</linearGradient>
<linearGradient id="paint1_linear_0_1" x1="25.7464" y1="36.3313" x2="25.7464" y2="37.9839" gradientUnits="userSpaceOnUse">
<stop stop-color="#01C2FF"/>
<stop offset="1" stop-color="#0169F0"/>
</linearGradient>
<linearGradient id="paint2_linear_0_1" x1="11.6994" y1="31.3737" x2="11.6994" y2="33.0262" gradientUnits="userSpaceOnUse">
<stop stop-color="#01C2FF"/>
<stop offset="1" stop-color="#0169F0"/>
</linearGradient>
<linearGradient id="paint3_linear_0_1" x1="25.7464" y1="31.3737" x2="25.7464" y2="33.0262" gradientUnits="userSpaceOnUse">
<stop stop-color="#01C2FF"/>
<stop offset="1" stop-color="#0169F0"/>
</linearGradient>
<linearGradient id="paint4_linear_0_1" x1="11.6994" y1="26.4159" x2="11.6994" y2="28.0685" gradientUnits="userSpaceOnUse">
<stop stop-color="#01C2FF"/>
<stop offset="1" stop-color="#0169F0"/>
</linearGradient>
<linearGradient id="paint5_linear_0_1" x1="25.7464" y1="26.4159" x2="25.7464" y2="28.0685" gradientUnits="userSpaceOnUse">
<stop stop-color="#01C2FF"/>
<stop offset="1" stop-color="#0169F0"/>
</linearGradient>
<linearGradient id="paint6_linear_0_1" x1="11.6994" y1="21.4581" x2="11.6994" y2="23.1107" gradientUnits="userSpaceOnUse">
<stop stop-color="#01C2FF"/>
<stop offset="1" stop-color="#0169F0"/>
</linearGradient>
<linearGradient id="paint7_linear_0_1" x1="25.7464" y1="21.4581" x2="25.7464" y2="23.1107" gradientUnits="userSpaceOnUse">
<stop stop-color="#01C2FF"/>
<stop offset="1" stop-color="#0169F0"/>
</linearGradient>
<linearGradient id="paint8_linear_0_1" x1="11.6994" y1="16.5005" x2="11.6994" y2="18.1531" gradientUnits="userSpaceOnUse">
<stop stop-color="#01C2FF"/>
<stop offset="1" stop-color="#0169F0"/>
</linearGradient>
<linearGradient id="paint9_linear_0_1" x1="25.7464" y1="16.5005" x2="25.7464" y2="18.1531" gradientUnits="userSpaceOnUse">
<stop stop-color="#01C2FF"/>
<stop offset="1" stop-color="#0169F0"/>
</linearGradient>
<linearGradient id="paint10_linear_0_1" x1="20.7886" y1="0.801025" x2="20.7886" y2="50.3782" gradientUnits="userSpaceOnUse">
<stop stop-color="#01C2FF"/>
<stop offset="1" stop-color="#0169F0"/>
</linearGradient>
<linearGradient id="paint11_linear_0_1" x1="13.352" y1="8.23755" x2="13.352" y2="14.8478" gradientUnits="userSpaceOnUse">
<stop stop-color="#01C2FF"/>
<stop offset="1" stop-color="#0169F0"/>
</linearGradient>
</defs>
</svg>

