<svg width="46" height="47" viewBox="0 0 46 47" fill="none" xmlns="http://www.w3.org/2000/svg">
<path d="M21.118 4.47224C20.8904 4.26248 20.6222 4.10169 20.33 3.99983C20.0378 3.89797 19.7277 3.85721 19.4191 3.88008C14.1003 4.3009 9.13852 6.72157 5.53316 10.6546C1.9278 14.5875 -0.053276 19.7406 -0.0110576 25.0759C0.0311608 30.4112 2.09354 35.5322 5.76069 39.4077C9.42783 43.2831 14.4273 45.625 19.7521 45.9616C20.1901 45.9897 20.6253 46.0037 21.0577 46.0037C26.3615 45.9879 31.4668 43.985 35.3665 40.3902C39.2662 36.7954 41.6771 31.8696 42.1237 26.5847C42.1472 26.276 42.1067 25.9658 42.0048 25.6734C41.9029 25.3811 41.7418 25.113 41.5315 24.8858C41.3187 24.6561 41.0608 24.4728 40.7739 24.3472C40.4871 24.2216 40.1774 24.1564 39.8643 24.1558H24.1081C23.5087 24.1558 22.9338 23.9176 22.51 23.4938C22.0861 23.0699 21.848 22.4951 21.848 21.8956V6.13946C21.8474 5.82633 21.7822 5.51668 21.6566 5.22984C21.531 4.94299 21.3476 4.6851 21.118 4.47224ZM24.1081 25.6625H39.8643C39.9699 25.662 40.0744 25.6836 40.1711 25.726C40.2678 25.7685 40.3545 25.8308 40.4256 25.9089C40.4952 25.9831 40.5486 26.071 40.5823 26.167C40.616 26.263 40.6294 26.3649 40.6214 26.4664C40.3238 30.1959 38.9643 33.7621 36.7037 36.7433C34.4432 39.7245 31.3761 41.9959 27.8653 43.2889C24.3545 44.582 20.5468 44.8425 16.8926 44.0397C13.2384 43.2369 9.89052 41.4043 7.24499 38.7588C4.59946 36.1132 2.76691 32.7654 1.9641 29.1112C1.16129 25.457 1.4218 21.6493 2.71482 18.1385C4.00784 14.6277 6.27927 11.5606 9.26047 9.30003C12.2417 7.03946 15.8079 5.67996 19.5374 5.38232H19.5954C19.781 5.38253 19.9596 5.45337 20.0949 5.58046C20.1727 5.65126 20.2348 5.73759 20.2773 5.83387C20.3197 5.93015 20.3415 6.03425 20.3412 6.13946V21.8956C20.3424 22.8943 20.7397 23.8517 21.4459 24.5579C22.152 25.2641 23.1095 25.6613 24.1081 25.6625Z" fill="url(#paint0_linear_0_1)"/>
<path d="M42.9313 22.6491C43.2438 22.6492 43.553 22.5848 43.8395 22.4599C44.126 22.335 44.3836 22.1523 44.5962 21.9232C44.8088 21.6942 44.9718 21.4237 45.075 21.1287C45.1782 20.8336 45.2194 20.5205 45.1959 20.2089C44.8194 15.1882 42.6544 10.4691 39.0942 6.9091C35.534 3.34904 30.8149 1.18419 25.7942 0.807852C25.4826 0.784518 25.1695 0.825766 24.8746 0.929013C24.5797 1.03226 24.3093 1.19528 24.0803 1.40787C23.8513 1.62046 23.6686 1.87804 23.5438 2.16448C23.419 2.45091 23.3546 2.76004 23.3547 3.07251V20.3844C23.3555 20.9848 23.5944 21.5603 24.0189 21.9849C24.4435 22.4094 25.019 22.6483 25.6194 22.6491H42.9313ZM24.8615 8.64676L30.2677 3.24051C31.3938 3.60549 32.4842 4.07251 33.5253 4.63577L24.8615 13.2966V8.64676ZM24.8615 15.4272L34.8573 5.43134C35.7851 6.03369 36.6597 6.7142 37.4715 7.46546L24.8615 20.077V15.4272ZM32.7072 21.1423L41.371 12.4784C41.9341 13.5186 42.4011 14.608 42.7663 15.733L37.357 21.1423H32.7072ZM43.4948 20.8952C43.4234 20.9735 43.3363 21.0359 43.2393 21.0785C43.1422 21.1211 43.0373 21.1428 42.9313 21.1423H39.4876L43.2266 17.4033C43.455 18.3652 43.6119 19.3428 43.696 20.3279C43.7042 20.4313 43.6905 20.5352 43.6559 20.633C43.6212 20.7307 43.5663 20.8201 43.4948 20.8952ZM40.5725 11.1465L30.5766 21.1423H25.9268L38.5368 8.53224C39.2886 9.34407 39.9696 10.2187 40.5725 11.1465ZM25.1086 2.50898C25.2458 2.3803 25.4267 2.30842 25.6149 2.30783H25.6744C26.6595 2.39112 27.637 2.54724 28.599 2.77492L24.8615 6.5162V3.07251C24.861 2.96652 24.8827 2.86161 24.9253 2.76454C24.9679 2.66747 25.0303 2.58041 25.1086 2.50898Z" fill="url(#paint1_linear_0_1)"/>
<defs>
<linearGradient id="paint0_linear_0_1" x1="21.0592" y1="3.8739" x2="21.0592" y2="46.0037" gradientUnits="userSpaceOnUse">
<stop stop-color="#01C2FF"/>
<stop offset="1" stop-color="#0169F0"/>
</linearGradient>
<linearGradient id="paint1_linear_0_1" x1="34.2785" y1="0.801514" x2="34.2785" y2="22.6491" gradientUnits="userSpaceOnUse">
<stop stop-color="#01C2FF"/>
<stop offset="1" stop-color="#0169F0"/>
</linearGradient>
</defs>
</svg>
