<svg width="56" height="57" viewBox="0 0 56 57" fill="none" xmlns="http://www.w3.org/2000/svg">
<g clip-path="url(#clip0_144_217)">
<path fill-rule="evenodd" clip-rule="evenodd" d="M28.0984 0.276965L28.1248 0.207899C27.78 0.0762082 27.3989 0.0762082 27.0542 0.207899L27.1076 0.347893L27.107 0.348139C27.0532 0.20825 27.0528 0.208403 27.0524 0.208561L27.0505 0.209316L27.0458 0.21111L27.0337 0.215838L26.9984 0.229913C26.97 0.241374 26.932 0.25703 26.8851 0.277073C26.7912 0.31715 26.6614 0.374831 26.5007 0.451668C26.1797 0.605245 25.7342 0.835969 25.2061 1.15643C24.1511 1.79649 22.7562 2.80066 21.3633 4.27182C18.5538 7.23915 15.8156 12.0447 15.8156 19.3864C15.8156 21.6497 16.0716 24.0216 16.5041 26.4119C13.3301 29.0471 11.3137 33.0683 11.3137 37.51C11.3137 40.725 12.345 43.6902 14.1457 46.1341C14.5153 46.6357 15.1564 46.8566 15.7565 46.6891C16.3566 46.5216 16.7907 46.0006 16.8471 45.3801C17.0824 42.7919 18.2268 40.3815 19.9447 38.5753C20.1396 39.1026 20.3368 39.6218 20.535 40.1316C20.7593 40.7082 21.3144 41.0879 21.933 41.0879H33.2459C33.861 41.0879 34.4138 40.7124 34.6404 40.1405C34.8861 39.5203 35.1301 38.8836 35.3701 38.2332C37.2088 40.0387 38.4331 42.4845 38.678 45.2607C38.7322 45.8749 39.1568 46.3934 39.7483 46.5677C40.3398 46.742 40.9777 46.5365 41.3563 46.0498C43.1926 43.6888 44.2119 40.5881 44.2119 37.3946C44.2119 32.7933 42.052 28.7779 38.7369 26.0859C39.1318 23.8016 39.3634 21.5389 39.3634 19.3864C39.3634 12.0447 36.6251 7.23915 33.8156 4.27182C32.4227 2.80066 31.0278 1.79649 29.9729 1.15643C29.4447 0.835969 28.9992 0.605245 28.6782 0.451668C28.5175 0.374831 28.3877 0.31715 28.2938 0.277073C28.2469 0.25703 28.2089 0.241374 28.1805 0.229913L28.1452 0.215838L28.1331 0.21111L28.1285 0.209316L28.1265 0.208561C28.1262 0.208436 28.1259 0.208314 28.0992 0.277195L28.0984 0.276965ZM17.2399 29.8555C17.7057 31.7606 18.2596 33.6499 18.8613 35.4773C17.1197 36.9548 15.7338 38.8706 14.8561 41.0267C14.5019 39.9174 14.3137 38.7382 14.3137 37.51C14.3137 34.5753 15.4232 31.877 17.2399 29.8555ZM22.2577 36.1452C22.4882 36.8015 22.7246 37.4499 22.965 38.0879H32.2201C34.4621 32.221 36.3634 25.252 36.3634 19.3864C36.3634 15.4996 35.5085 12.4779 34.3242 10.1507H20.8547C19.6705 12.4779 18.8156 15.4996 18.8156 19.3864C18.8156 21.4511 19.0511 23.6398 19.4544 25.8697C19.6425 26.0725 19.7738 26.3266 19.8276 26.6065C20.393 29.5462 21.1822 32.586 22.1901 35.3858C22.28 35.6355 22.3 35.8966 22.2577 36.1452ZM29.4538 4.45622C28.7703 3.96329 28.1773 3.62195 27.7641 3.40744L27.705 3.37697L27.6459 3.40744C27.2328 3.62195 26.6397 3.96329 25.9562 4.45622C25.0766 5.09055 24.0536 5.9711 23.0703 7.1507H32.3398C31.3564 5.9711 30.3334 5.09055 29.4538 4.45622ZM38.0924 29.5763C37.627 31.4903 37.0667 33.4008 36.4971 35.2197C38.3252 36.7114 39.78 38.6555 40.6858 40.9002C41.0274 39.798 41.2119 38.6117 41.2119 37.3946C41.2119 34.3768 40.0359 31.6563 38.0924 29.5763ZM27.705 18.5778C26.557 18.5778 25.6264 19.5084 25.6264 20.6563C25.6264 21.8043 26.557 22.7349 27.705 22.7349C28.8529 22.7349 29.7835 21.8043 29.7835 20.6563C29.7835 19.5084 28.8529 18.5778 27.705 18.5778ZM22.6264 20.6563C22.6264 17.8515 24.9002 15.5778 27.705 15.5778C30.5098 15.5778 32.7835 17.8515 32.7835 20.6563C32.7835 23.4612 30.5098 25.7349 27.705 25.7349C24.9002 25.7349 22.6264 23.4612 22.6264 20.6563ZM33.5916 44.898C33.5916 44.0696 32.92 43.398 32.0916 43.398C31.2631 43.398 30.5916 44.0696 30.5916 44.898V51.4779C30.5916 52.3064 31.2631 52.9779 32.0916 52.9779C32.92 52.9779 33.5916 52.3064 33.5916 51.4779V44.898ZM23.3183 43.398C24.1468 43.398 24.8183 44.0696 24.8183 44.898V51.4779C24.8183 52.3064 24.1468 52.9779 23.3183 52.9779C22.4899 52.9779 21.8183 52.3064 21.8183 51.4779V44.898C21.8183 44.0696 22.4899 43.398 23.3183 43.398ZM29.2049 48.7075C29.2049 47.879 28.5334 47.2075 27.7049 47.2075C26.8765 47.2075 26.2049 47.879 26.2049 48.7075V55.4028C26.2049 56.2312 26.8765 56.9028 27.7049 56.9028C28.5334 56.9028 29.2049 56.2312 29.2049 55.4028V48.7075Z" fill="url(#paint0_linear_144_217)"/>
</g>
<defs>
<linearGradient id="paint0_linear_144_217" x1="14.9952" y1="56.6131" x2="34.428" y2="-4.15976" gradientUnits="userSpaceOnUse">
<stop stop-color="#0169F0"/>
<stop offset="1" stop-color="#01C2FF"/>
</linearGradient>
<clipPath id="clip0_144_217">
<rect width="55.4098" height="55.4098" fill="white" transform="translate(0 0.801025)"/>
</clipPath>
</defs>
</svg>
