<svg width="166" height="36" viewBox="0 0 166 36" fill="none" xmlns="http://www.w3.org/2000/svg">
<g clip-path="url(#clip0_22_872)">
<path d="M63.0468 28.2848H57.2368V12.4174H63.0468C64.7068 12.4174 66.1145 12.7304 67.3229 13.4218C68.4717 14.0478 69.4942 14.987 70.0719 16.1217C70.7094 17.3739 70.9683 18.7565 70.9683 20.387C70.9683 22.0174 70.6496 23.5239 69.9457 24.6522C69.3681 25.7804 68.3521 26.7848 67.1968 27.4109C66.1078 27.9718 64.7068 28.2848 63.0468 28.2848ZM60.6829 25.4022H62.8542C64.3217 25.4022 65.5368 24.9652 66.3668 24.15C67.1968 23.3348 67.5155 22.0174 67.5155 20.3218C67.5155 18.6261 67.0706 17.3087 66.3668 16.4935C65.5368 15.6783 64.3881 15.2413 62.8542 15.2413H60.6829V25.4022ZM73.5845 28.2848H69.9457L75.6296 12.4174H80.0983L85.7822 28.2848H82.1368L80.9881 24.7109H75.0519L73.6442 28.2848H73.5845ZM75.6894 22.0761H79.8393L77.8606 16.1152H77.6681L75.6894 22.0761ZM99.8258 20.3804C99.8258 22.0761 99.507 23.5761 98.8032 24.7696C98.1657 26.0218 97.2096 26.9022 96.0542 27.5283C94.9055 28.1544 93.6306 28.5326 92.1566 28.5326C90.7489 28.5326 89.4076 28.2196 88.2589 27.5283C87.1101 26.9022 86.154 25.9631 85.5099 24.7696C84.8725 23.5174 84.4874 22.0696 84.4874 20.3804C84.4874 18.6913 84.8061 17.1848 85.5099 15.9913C86.1474 14.7391 87.1035 13.8587 88.2589 13.2326C89.4076 12.6065 90.6825 12.2283 92.1566 12.2283C93.5642 12.2283 94.9055 12.5413 96.0542 13.2326C97.2029 13.8587 98.1591 14.7978 98.8032 15.9913C99.4406 17.1196 99.8258 18.6913 99.8258 20.3804ZM96.3132 20.3804C96.3132 18.75 95.8683 17.4326 95.1645 16.5522C94.4009 15.6718 93.4381 15.2348 92.1632 15.2348C90.8883 15.2348 89.9255 15.6718 89.1619 16.5522C88.3983 17.4326 88.0132 18.75 88.0132 20.3804C88.0132 22.0109 88.4581 23.3283 89.1619 24.2087C89.9255 25.0891 90.8883 25.5261 92.1632 25.5261C93.4381 25.5261 94.4009 25.0891 95.1645 24.2087C95.9281 23.3283 96.3132 22.0109 96.3132 20.3804ZM104.421 12.4174H108.697L113.166 23.1391H113.358L117.827 12.4174H122.103V28.2848H118.783V17.8761H118.59L114.314 28.1022H112.083L107.807 17.8174H107.614V28.2261H104.294L104.361 12.4239H104.421V12.4174ZM127.156 28.4739C126.007 28.4739 124.985 28.1609 124.221 27.5935C123.458 27.0261 123.072 26.1522 123.072 24.8935C123.072 24.0131 123.325 23.3283 123.71 22.7609C124.155 22.2587 124.732 21.8804 125.37 21.6326C126.133 21.3848 126.837 21.1957 127.608 21.1304C128.69 21.0652 129.46 20.8826 129.845 20.8174C130.29 20.6283 130.483 20.5044 130.483 20.0674V20.0022C130.483 19.5 130.29 19.1217 129.971 18.8739C129.653 18.6261 129.208 18.437 128.63 18.437C128.052 18.437 127.548 18.6261 127.163 18.8739C126.844 19.1217 126.585 19.4413 126.399 19.8783L123.205 19.6304C123.458 18.5674 124.035 17.687 124.932 17.1196C125.828 16.4935 127.103 16.1152 128.511 16.1152C129.407 16.1152 130.237 16.3044 131.067 16.5522C131.897 16.8 132.475 17.3022 132.986 17.8696C133.497 18.437 133.75 19.2522 133.75 20.1913V28.2848H130.748V26.6544H130.682C130.363 27.2218 129.918 27.7174 129.341 28.037C128.703 28.4739 127.933 28.6044 126.977 28.6044L127.156 28.4739ZM128.179 26.2761C128.942 26.2761 129.52 26.0283 130.031 25.65C130.542 25.2131 130.795 24.6457 130.795 24.0848V22.8261C130.602 22.8913 130.476 23.0152 130.157 23.0739C129.839 23.1391 129.58 23.2631 129.261 23.2631C128.942 23.3283 128.683 23.3283 128.431 23.4522C127.853 23.5174 127.349 23.7 127.023 23.9544C126.704 24.2022 126.512 24.5218 126.512 25.0174C126.512 25.5131 126.704 25.8326 127.023 26.0804C127.342 26.1457 127.787 26.3283 128.298 26.3283L128.179 26.2761ZM135.396 28.35V12.4826H138.783V21.0131H138.975L142.873 16.5H146.771L142.176 21.6457L146.903 28.4218H142.88L139.56 23.5957L138.663 24.6587V28.4218L135.343 28.3565H135.396V28.35Z" fill="white"/>
<path d="M151.996 28.539C150.721 28.539 149.632 28.2912 148.743 27.789C147.846 27.2868 147.149 26.5368 146.638 25.6564C146.126 24.776 145.874 23.589 145.874 22.3955C145.874 21.1434 146.126 20.0738 146.638 19.1999C147.149 18.326 147.786 17.5694 148.743 17.0673C149.639 16.5651 150.662 16.3173 151.936 16.3173C153.019 16.3173 154.041 16.5651 154.871 16.9434C155.701 17.3803 156.465 18.0716 156.976 19.0108C157.488 19.8912 157.74 21.0781 157.74 22.3368V23.2173H149.44C149.44 24.0977 149.692 24.7825 150.203 25.3499C150.715 25.8521 151.352 26.0999 152.182 26.0999C152.76 26.0999 153.264 25.9108 153.65 25.7868C154.094 25.539 154.413 25.2194 154.546 24.7238L157.74 24.9716C157.488 26.0999 156.91 26.9151 155.887 27.6716C154.805 28.1738 153.523 28.4868 152.056 28.4868L151.996 28.539ZM149.247 21.0716H154.42C154.42 20.3216 154.168 19.7542 153.656 19.376C153.145 18.8738 152.574 18.7499 151.804 18.7499C151.033 18.7499 150.396 18.9977 149.951 19.4999C149.506 19.9368 149.314 20.5042 149.188 21.1303L149.247 21.0716ZM158.51 28.2847V16.3694H161.83V18.4368H162.023C162.275 17.6868 162.6 17.1194 163.105 16.8064C163.616 16.3694 164.254 16.239 164.958 16.239C165.402 16.239 165.721 16.3042 166.04 16.4281V19.376C165.788 19.3108 165.595 19.3108 165.402 19.1868C165.15 19.1868 164.891 19.1868 164.639 19.1868C163.875 19.1868 163.231 19.4347 162.786 19.8129C162.275 20.3151 162.023 20.876 162.023 21.6325V28.3434H158.51V28.2847Z" fill="white"/>
<path d="M0.0198364 35.9348L16.3675 6.2087L30.7365 0L14.4486 29.6674L0.0198364 35.9348Z" fill="url(#paint0_linear_22_872)"/>
<path d="M16.2414 29.1L28.6914 6.52173L35.7763 13.3565L23.5189 36L16.2414 29.1Z" fill="url(#paint1_linear_22_872)"/>
<path d="M37.0578 14.0479L46.2542 17.3739L41.6527 25.5913L30.4776 26.0283L37.0578 14.0479Z" fill="url(#paint2_linear_22_872)"/>
</g>
<defs>
<linearGradient id="paint0_linear_22_872" x1="16.4455" y1="17.1235" x2="61.6498" y2="-19.67" gradientUnits="userSpaceOnUse">
<stop stop-color="#48D5FF"/>
<stop offset="1" stop-color="#1FA5FF"/>
</linearGradient>
<linearGradient id="paint1_linear_22_872" x1="20.6198" y1="25.2759" x2="69.0925" y2="-11.4972" gradientUnits="userSpaceOnUse">
<stop stop-color="#48D5FF"/>
<stop offset="1" stop-color="#1FA5FF"/>
</linearGradient>
<linearGradient id="paint2_linear_22_872" x1="24.7219" y1="30.4197" x2="71.5636" y2="-4.7549" gradientUnits="userSpaceOnUse">
<stop stop-color="#48D5FF"/>
<stop offset="1" stop-color="#1FA5FF"/>
</linearGradient>
<clipPath id="clip0_22_872">
<rect width="166" height="36" fill="white"/>
</clipPath>
</defs>
</svg>











