<svg width="192" height="26" viewBox="0 0 192 26" fill="none" xmlns="http://www.w3.org/2000/svg">
<path d="M41.1467 22.7149C39.5436 24.4111 37.3747 25.2425 34.6713 25.2425C31.968 25.2425 29.7991 24.4111 28.1959 22.7149C26.5614 21.0188 25.7755 18.857 25.7755 16.2297C25.7755 13.6023 26.5928 11.4406 28.1959 9.74447C29.8305 8.04833 31.968 7.21689 34.6713 7.21689C37.3747 7.21689 39.5436 8.04833 41.1467 9.74447C42.7499 11.4406 43.5671 13.6023 43.5671 16.2297C43.5671 18.857 42.7499 21.0188 41.1467 22.7149ZM34.6713 20.653C35.8344 20.653 36.7774 20.2539 37.469 19.4224C38.1605 18.591 38.5063 17.5267 38.5063 16.2297C38.5063 14.8994 38.1605 13.8352 37.469 13.0037C36.7774 12.1723 35.8344 11.7732 34.6713 11.7732C33.4768 11.7732 32.5338 12.1723 31.8737 13.0037C31.2136 13.8352 30.8678 14.8994 30.8678 16.2297C30.8678 17.56 31.2136 18.6242 31.8737 19.4557C32.5338 20.2539 33.4768 20.653 34.6713 20.653ZM45.8618 24.7436V0H50.9541V24.7436H45.8618ZM70.286 24.7436H64.0621L58.9698 17.3605V24.7436H53.8775V0H58.9698V14.7996L64.1878 7.71575H70.1917L63.8106 15.7641L70.286 24.7436Z" fill="white"/>
<path d="M77.5468 25.209C75.2207 25.209 73.3661 24.3776 72.0144 22.6814C70.6628 20.9853 69.9712 18.8568 69.9712 16.2295C69.9712 13.6354 70.6628 11.5069 72.0773 9.81077C73.4604 8.11463 75.315 7.28319 77.6097 7.28319C78.6784 7.28319 79.7158 7.54925 80.6273 8.04811C81.4761 8.54698 82.1676 9.27865 82.6391 10.1766V7.7488H87.7V24.7434H82.6391V22.3489C82.199 23.1803 81.5075 23.8787 80.5959 24.4108C79.6529 24.943 78.6156 25.209 77.5468 25.209ZM79.0242 20.7193C80.2501 20.7193 81.1931 20.2869 81.8533 19.4555C82.5448 18.624 82.8591 17.5265 82.8591 16.2295C82.8591 14.9657 82.5134 13.9014 81.8533 13.07C81.1931 12.2386 80.2501 11.8062 79.0242 11.8062C77.8611 11.8062 76.9496 12.2053 76.258 13.0367C75.5665 13.8682 75.1893 14.9324 75.1893 16.2295C75.1893 17.5598 75.535 18.624 76.258 19.4555C76.9181 20.2869 77.8611 20.7193 79.0242 20.7193ZM97.5073 25.2755C95.2127 25.2755 93.3581 24.7434 91.975 23.6792C90.5919 22.6149 89.9003 21.2514 89.9003 19.6218H94.9612C94.9612 20.2204 95.2127 20.686 95.6842 21.0851C96.1871 21.4509 96.8158 21.6505 97.5702 21.6505C98.136 21.6505 98.5761 21.5174 98.9219 21.2181C99.2676 20.9521 99.4563 20.5197 99.4563 20.0541C99.4563 19.2892 99.079 18.7903 98.2932 18.5908L94.364 17.5265C93.0437 17.1607 92.0693 16.5621 91.3777 15.7306C90.6862 14.8659 90.3404 13.8349 90.3404 12.6377C90.3404 11.0413 90.9691 9.74425 92.195 8.74652C93.4209 7.7488 95.1184 7.24993 97.193 7.24993C99.4877 7.24993 101.279 7.71554 102.505 8.64676C103.731 9.57797 104.36 10.9083 104.36 12.5379H99.3305C99.362 12.0058 99.1419 11.5069 98.7333 11.1411C98.3561 10.8085 97.8217 10.6422 97.1301 10.6422C96.5643 10.6422 96.1243 10.7752 95.8099 11.0413C95.4956 11.2741 95.307 11.6399 95.307 12.0723C95.307 12.8372 95.7471 13.3361 96.6586 13.6021L100.462 14.6996C101.719 15.0655 102.725 15.6308 103.448 16.4623C104.171 17.2605 104.549 18.3247 104.517 19.4555C104.517 21.2181 103.888 22.6482 102.631 23.7124C101.405 24.7102 99.6763 25.2755 97.5073 25.2755ZM114.167 20.5197C114.765 20.5197 115.362 20.4865 115.928 20.4199V24.7102C114.796 24.9097 113.664 25.0095 112.533 24.9762C112.03 24.9762 111.495 24.943 110.992 24.8764C110.49 24.7767 109.987 24.6104 109.484 24.4108C108.949 24.178 108.509 23.8455 108.132 23.4131C107.786 22.9808 107.472 22.3821 107.22 21.584C106.938 20.686 106.812 19.7215 106.843 18.7571V0.132812H111.936V7.7488H115.55V12.039H111.936V17.6928C111.936 18.8568 112.124 19.6217 112.501 20.0208C112.879 20.3534 113.444 20.553 114.167 20.5197ZM125.201 25.209C122.875 25.209 121.02 24.3776 119.668 22.6814C118.317 21.0186 117.625 18.8568 117.625 16.2295C117.625 13.6354 118.317 11.5069 119.731 9.81077C121.146 8.11463 122.969 7.28319 125.264 7.28319C126.332 7.24993 127.37 7.51599 128.281 8.04811C129.13 8.51372 129.821 9.27865 130.261 10.1766V7.7488H135.322V24.7434H130.261V22.3489C129.821 23.1803 129.13 23.8787 128.218 24.4108C127.307 24.943 126.269 25.209 125.201 25.209ZM126.678 20.7193C127.904 20.7193 128.847 20.2869 129.507 19.4555C130.167 18.624 130.513 17.5265 130.513 16.2295C130.513 14.9657 130.167 13.9014 129.507 13.07C128.847 12.2386 127.904 11.8062 126.678 11.8062C125.515 11.8062 124.603 12.2053 123.912 13.0367C123.22 13.8682 122.843 14.9324 122.843 16.2295C122.843 17.5598 123.189 18.624 123.912 19.4555C124.572 20.2869 125.515 20.7193 126.678 20.7193ZM137.648 24.7434V7.71554H142.741V11.2741C142.992 10.0436 143.558 9.11236 144.407 8.44721C145.193 7.78206 146.167 7.44948 147.173 7.44948C147.613 7.44948 148.085 7.48274 148.493 7.58251V12.6044C147.99 12.5379 147.487 12.5046 146.953 12.5046C144.124 12.5046 142.741 14.4003 142.741 18.1917V24.7767C142.741 24.7102 137.648 24.7434 137.648 24.7434ZM158.175 20.5197C158.772 20.5197 159.369 20.4865 159.935 20.4199V24.7102C158.803 24.9097 157.672 25.0095 156.54 24.9762C156.037 24.9762 155.503 24.943 155 24.8764C154.497 24.7767 153.994 24.6104 153.491 24.4108C152.957 24.178 152.517 23.8455 152.14 23.4131C151.794 22.9808 151.479 22.3821 151.228 21.584C150.945 20.686 150.819 19.7215 150.851 18.7571V0.132812H155.943V7.7488H159.558V12.039H155.943V17.6928C155.943 18.8568 156.132 19.6217 156.509 20.0208C156.886 20.3534 157.452 20.553 158.175 20.5197ZM178.67 15.3315C178.67 16.1297 178.607 16.9279 178.544 17.6928H166.693C166.725 18.7903 167.102 19.655 167.762 20.2869C168.422 20.9188 169.334 21.2181 170.465 21.1849C172.006 21.1849 173.012 20.6527 173.452 19.5885H178.45C178.198 21.2514 177.35 22.6149 175.872 23.6792C174.395 24.7434 172.603 25.2423 170.465 25.2423C167.731 25.2423 165.593 24.4441 163.99 22.8477C162.418 21.2514 161.633 19.0231 161.633 16.1962C161.633 13.4358 162.418 11.2408 163.99 9.61122C165.562 7.9816 167.668 7.18342 170.277 7.18342C172.76 7.18342 174.772 7.94834 176.344 9.44493C177.884 10.9748 178.67 12.937 178.67 15.3315ZM166.693 14.3338H173.64C173.609 13.203 173.326 12.3383 172.729 11.7397C172.163 11.1411 171.314 10.8418 170.245 10.8418C169.145 10.8418 168.297 11.1743 167.668 11.8062C167.039 12.4381 166.725 13.2696 166.693 14.3338ZM180.996 24.7434V7.71554H186.088V11.2741C186.34 10.0436 186.905 9.11236 187.754 8.44721C188.54 7.78206 189.514 7.44948 190.52 7.44948C190.96 7.44948 191.432 7.48274 191.841 7.58251V12.6044C191.338 12.5379 190.835 12.5046 190.3 12.5046C187.471 12.5046 186.088 14.4003 186.088 18.1917V24.7767L180.996 24.7434Z" fill="white"/>
<path fill-rule="evenodd" clip-rule="evenodd" d="M22.5381 2.52758C20.9664 0.831442 18.9546 0 16.5656 0H6.66395V10.1436C8.89576 10.9085 10.4046 13.0702 10.3732 15.5645C10.3732 18.0256 8.86433 20.2206 6.66395 20.9855V24.7436H12.0392V17.8926H16.5656C18.986 17.8926 20.9664 17.0611 22.5381 15.365C24.1098 13.6689 24.8956 11.5404 24.8956 8.94629C24.8956 6.3522 24.1098 4.22371 22.5381 2.52758ZM18.4202 12.006C17.7287 12.8042 16.8485 13.2033 15.7484 13.2033H12.0392V4.65606H15.7169C16.8171 4.65606 17.6973 5.05515 18.3888 5.85334C19.0803 6.65152 19.4261 7.6825 19.4261 8.91303C19.4576 10.1768 19.1118 11.2078 18.4202 12.006Z" fill="white"/>
<path d="M3.89781 19.755C6.06675 19.755 7.79561 17.8926 7.79561 15.5978C7.79561 13.303 6.03531 11.4739 3.89781 11.4739C1.72887 11.4739 0 13.3363 0 15.5978C0 17.8926 1.72887 19.755 3.89781 19.755Z" fill="#F35165"/>
</svg>












